<?xml version="1.0" encoding="utf-8"?>
<svg xmlns="http://www.w3.org/2000/svg" xmlns:xlink="http://www.w3.org/1999/xlink" width="600" height="400" viewBox="0 0 2400 1600">
<defs>
  <clipPath id="clip670">
    <rect x="0" y="0" width="2400" height="1600"/>
  </clipPath>
</defs>
<path clip-path="url(#clip670)" d="
M0 1600 L2400 1600 L2400 0 L0 0  Z
  " fill="#ffffff" fill-rule="evenodd" fill-opacity="1"/>
<defs>
  <clipPath id="clip671">
    <rect x="480" y="0" width="1681" height="1600"/>
  </clipPath>
</defs>
<path clip-path="url(#clip670)" d="
M224.098 1486.45 L596.205 1486.45 L596.205 123.472 L224.098 123.472  Z
  " fill="#ffffff" fill-rule="evenodd" fill-opacity="1"/>
<defs>
  <clipPath id="clip672">
    <rect x="224" y="123" width="373" height="1364"/>
  </clipPath>
</defs>
<polyline clip-path="url(#clip672)" style="stroke:#000000; stroke-linecap:butt; stroke-linejoin:round; stroke-width:2; stroke-opacity:0.1; fill:none" points="
  234.629,1486.45 234.629,123.472 
  "/>
<polyline clip-path="url(#clip672)" style="stroke:#000000; stroke-linecap:butt; stroke-linejoin:round; stroke-width:2; stroke-opacity:0.1; fill:none" points="
  326.824,1486.45 326.824,123.472 
  "/>
<polyline clip-path="url(#clip672)" style="stroke:#000000; stroke-linecap:butt; stroke-linejoin:round; stroke-width:2; stroke-opacity:0.1; fill:none" points="
  419.02,1486.45 419.02,123.472 
  "/>
<polyline clip-path="url(#clip672)" style="stroke:#000000; stroke-linecap:butt; stroke-linejoin:round; stroke-width:2; stroke-opacity:0.1; fill:none" points="
  511.215,1486.45 511.215,123.472 
  "/>
<polyline clip-path="url(#clip670)" style="stroke:#000000; stroke-linecap:butt; stroke-linejoin:round; stroke-width:4; stroke-opacity:1; fill:none" points="
  224.098,1486.45 596.205,1486.45 
  "/>
<polyline clip-path="url(#clip670)" style="stroke:#000000; stroke-linecap:butt; stroke-linejoin:round; stroke-width:4; stroke-opacity:1; fill:none" points="
  234.629,1486.45 234.629,1470.09 
  "/>
<polyline clip-path="url(#clip670)" style="stroke:#000000; stroke-linecap:butt; stroke-linejoin:round; stroke-width:4; stroke-opacity:1; fill:none" points="
  326.824,1486.45 326.824,1470.09 
  "/>
<polyline clip-path="url(#clip670)" style="stroke:#000000; stroke-linecap:butt; stroke-linejoin:round; stroke-width:4; stroke-opacity:1; fill:none" points="
  419.02,1486.45 419.02,1470.09 
  "/>
<polyline clip-path="url(#clip670)" style="stroke:#000000; stroke-linecap:butt; stroke-linejoin:round; stroke-width:4; stroke-opacity:1; fill:none" points="
  511.215,1486.45 511.215,1470.09 
  "/>
<path clip-path="url(#clip670)" d="M234.629 1515.64 Q231.018 1515.64 229.189 1519.2 Q227.384 1522.75 227.384 1529.87 Q227.384 1536.98 229.189 1540.55 Q231.018 1544.09 234.629 1544.09 Q238.263 1544.09 240.069 1540.55 Q241.898 1536.98 241.898 1529.87 Q241.898 1522.75 240.069 1519.2 Q238.263 1515.64 234.629 1515.64 M234.629 1511.93 Q240.439 1511.93 243.495 1516.54 Q246.574 1521.12 246.574 1529.87 Q246.574 1538.6 243.495 1543.21 Q240.439 1547.79 234.629 1547.79 Q228.819 1547.79 225.74 1543.21 Q222.685 1538.6 222.685 1529.87 Q222.685 1521.12 225.74 1516.54 Q228.819 1511.93 234.629 1511.93 Z" fill="#000000" fill-rule="evenodd" fill-opacity="1" /><path clip-path="url(#clip670)" d="M317.102 1512.56 L335.459 1512.56 L335.459 1516.5 L321.385 1516.5 L321.385 1524.97 Q322.403 1524.62 323.422 1524.46 Q324.44 1524.27 325.459 1524.27 Q331.246 1524.27 334.625 1527.44 Q338.005 1530.62 338.005 1536.03 Q338.005 1541.61 334.533 1544.71 Q331.061 1547.79 324.741 1547.79 Q322.565 1547.79 320.297 1547.42 Q318.051 1547.05 315.644 1546.31 L315.644 1541.61 Q317.727 1542.74 319.95 1543.3 Q322.172 1543.86 324.649 1543.86 Q328.653 1543.86 330.991 1541.75 Q333.329 1539.64 333.329 1536.03 Q333.329 1532.42 330.991 1530.31 Q328.653 1528.21 324.649 1528.21 Q322.774 1528.21 320.899 1528.62 Q319.047 1529.04 317.102 1529.92 L317.102 1512.56 Z" fill="#000000" fill-rule="evenodd" fill-opacity="1" /><path clip-path="url(#clip670)" d="M393.707 1543.18 L401.346 1543.18 L401.346 1516.82 L393.036 1518.49 L393.036 1514.23 L401.3 1512.56 L405.976 1512.56 L405.976 1543.18 L413.615 1543.18 L413.615 1547.12 L393.707 1547.12 L393.707 1543.18 Z" fill="#000000" fill-rule="evenodd" fill-opacity="1" /><path clip-path="url(#clip670)" d="M433.059 1515.64 Q429.448 1515.64 427.619 1519.2 Q425.814 1522.75 425.814 1529.87 Q425.814 1536.98 427.619 1540.55 Q429.448 1544.09 433.059 1544.09 Q436.693 1544.09 438.499 1540.55 Q440.328 1536.98 440.328 1529.87 Q440.328 1522.75 438.499 1519.2 Q436.693 1515.64 433.059 1515.64 M433.059 1511.93 Q438.869 1511.93 441.925 1516.54 Q445.003 1521.12 445.003 1529.87 Q445.003 1538.6 441.925 1543.21 Q438.869 1547.79 433.059 1547.79 Q427.249 1547.79 424.17 1543.21 Q421.115 1538.6 421.115 1529.87 Q421.115 1521.12 424.17 1516.54 Q427.249 1511.93 433.059 1511.93 Z" fill="#000000" fill-rule="evenodd" fill-opacity="1" /><path clip-path="url(#clip670)" d="M486.4 1543.18 L494.039 1543.18 L494.039 1516.82 L485.729 1518.49 L485.729 1514.23 L493.993 1512.56 L498.669 1512.56 L498.669 1543.18 L506.308 1543.18 L506.308 1547.12 L486.4 1547.12 L486.4 1543.18 Z" fill="#000000" fill-rule="evenodd" fill-opacity="1" /><path clip-path="url(#clip670)" d="M515.798 1512.56 L534.155 1512.56 L534.155 1516.5 L520.081 1516.5 L520.081 1524.97 Q521.099 1524.62 522.118 1524.46 Q523.136 1524.27 524.155 1524.27 Q529.942 1524.27 533.321 1527.44 Q536.701 1530.62 536.701 1536.03 Q536.701 1541.61 533.229 1544.71 Q529.757 1547.79 523.437 1547.79 Q521.261 1547.79 518.993 1547.42 Q516.747 1547.05 514.34 1546.31 L514.34 1541.61 Q516.423 1542.74 518.646 1543.3 Q520.868 1543.86 523.345 1543.86 Q527.349 1543.86 529.687 1541.75 Q532.025 1539.64 532.025 1536.03 Q532.025 1532.42 529.687 1530.31 Q527.349 1528.21 523.345 1528.21 Q521.47 1528.21 519.595 1528.62 Q517.743 1529.04 515.798 1529.92 L515.798 1512.56 Z" fill="#000000" fill-rule="evenodd" fill-opacity="1" /><polyline clip-path="url(#clip672)" style="stroke:#000000; stroke-linecap:butt; stroke-linejoin:round; stroke-width:2; stroke-opacity:0.1; fill:none" points="
  224.098,1318.67 596.205,1318.67 
  "/>
<polyline clip-path="url(#clip672)" style="stroke:#000000; stroke-linecap:butt; stroke-linejoin:round; stroke-width:2; stroke-opacity:0.1; fill:none" points="
  224.098,1027.59 596.205,1027.59 
  "/>
<polyline clip-path="url(#clip672)" style="stroke:#000000; stroke-linecap:butt; stroke-linejoin:round; stroke-width:2; stroke-opacity:0.1; fill:none" points="
  224.098,736.5 596.205,736.5 
  "/>
<polyline clip-path="url(#clip672)" style="stroke:#000000; stroke-linecap:butt; stroke-linejoin:round; stroke-width:2; stroke-opacity:0.1; fill:none" points="
  224.098,445.414 596.205,445.414 
  "/>
<polyline clip-path="url(#clip672)" style="stroke:#000000; stroke-linecap:butt; stroke-linejoin:round; stroke-width:2; stroke-opacity:0.1; fill:none" points="
  224.098,154.328 596.205,154.328 
  "/>
<polyline clip-path="url(#clip670)" style="stroke:#000000; stroke-linecap:butt; stroke-linejoin:round; stroke-width:4; stroke-opacity:1; fill:none" points="
  224.098,1486.45 224.098,123.472 
  "/>
<polyline clip-path="url(#clip670)" style="stroke:#000000; stroke-linecap:butt; stroke-linejoin:round; stroke-width:4; stroke-opacity:1; fill:none" points="
  224.098,1318.67 228.563,1318.67 
  "/>
<polyline clip-path="url(#clip670)" style="stroke:#000000; stroke-linecap:butt; stroke-linejoin:round; stroke-width:4; stroke-opacity:1; fill:none" points="
  224.098,1027.59 228.563,1027.59 
  "/>
<polyline clip-path="url(#clip670)" style="stroke:#000000; stroke-linecap:butt; stroke-linejoin:round; stroke-width:4; stroke-opacity:1; fill:none" points="
  224.098,736.5 228.563,736.5 
  "/>
<polyline clip-path="url(#clip670)" style="stroke:#000000; stroke-linecap:butt; stroke-linejoin:round; stroke-width:4; stroke-opacity:1; fill:none" points="
  224.098,445.414 228.563,445.414 
  "/>
<polyline clip-path="url(#clip670)" style="stroke:#000000; stroke-linecap:butt; stroke-linejoin:round; stroke-width:4; stroke-opacity:1; fill:none" points="
  224.098,154.328 228.563,154.328 
  "/>
<path clip-path="url(#clip670)" d="M51.9875 1319.12 L81.6633 1319.12 L81.6633 1323.06 L51.9875 1323.06 L51.9875 1319.12 Z" fill="#000000" fill-rule="evenodd" fill-opacity="1" /><path clip-path="url(#clip670)" d="M101.756 1304.47 Q98.1447 1304.47 96.316 1308.04 Q94.5104 1311.58 94.5104 1318.71 Q94.5104 1325.81 96.316 1329.38 Q98.1447 1332.92 101.756 1332.92 Q105.39 1332.92 107.196 1329.38 Q109.024 1325.81 109.024 1318.71 Q109.024 1311.58 107.196 1308.04 Q105.39 1304.47 101.756 1304.47 M101.756 1300.77 Q107.566 1300.77 110.621 1305.37 Q113.7 1309.96 113.7 1318.71 Q113.7 1327.43 110.621 1332.04 Q107.566 1336.62 101.756 1336.62 Q95.9456 1336.62 92.8669 1332.04 Q89.8114 1327.43 89.8114 1318.71 Q89.8114 1309.96 92.8669 1305.37 Q95.9456 1300.77 101.756 1300.77 Z" fill="#000000" fill-rule="evenodd" fill-opacity="1" /><path clip-path="url(#clip670)" d="M121.918 1330.07 L126.802 1330.07 L126.802 1335.95 L121.918 1335.95 L121.918 1330.07 Z" fill="#000000" fill-rule="evenodd" fill-opacity="1" /><path clip-path="url(#clip670)" d="M135.806 1301.39 L158.029 1301.39 L158.029 1303.38 L145.482 1335.95 L140.598 1335.95 L152.404 1305.33 L135.806 1305.33 L135.806 1301.39 Z" fill="#000000" fill-rule="evenodd" fill-opacity="1" /><path clip-path="url(#clip670)" d="M167.195 1301.39 L185.552 1301.39 L185.552 1305.33 L171.478 1305.33 L171.478 1313.8 Q172.496 1313.45 173.515 1313.29 Q174.533 1313.1 175.552 1313.1 Q181.339 1313.1 184.718 1316.28 Q188.098 1319.45 188.098 1324.86 Q188.098 1330.44 184.626 1333.54 Q181.153 1336.62 174.834 1336.62 Q172.658 1336.62 170.39 1336.25 Q168.144 1335.88 165.737 1335.14 L165.737 1330.44 Q167.82 1331.58 170.042 1332.13 Q172.265 1332.69 174.741 1332.69 Q178.746 1332.69 181.084 1330.58 Q183.422 1328.48 183.422 1324.86 Q183.422 1321.25 181.084 1319.15 Q178.746 1317.04 174.741 1317.04 Q172.866 1317.04 170.991 1317.46 Q169.14 1317.87 167.195 1318.75 L167.195 1301.39 Z" fill="#000000" fill-rule="evenodd" fill-opacity="1" /><path clip-path="url(#clip670)" d="M50.9921 1028.04 L80.6679 1028.04 L80.6679 1031.97 L50.9921 1031.97 L50.9921 1028.04 Z" fill="#000000" fill-rule="evenodd" fill-opacity="1" /><path clip-path="url(#clip670)" d="M100.76 1013.38 Q97.1493 1013.38 95.3206 1016.95 Q93.515 1020.49 93.515 1027.62 Q93.515 1034.73 95.3206 1038.29 Q97.1493 1041.83 100.76 1041.83 Q104.395 1041.83 106.2 1038.29 Q108.029 1034.73 108.029 1027.62 Q108.029 1020.49 106.2 1016.95 Q104.395 1013.38 100.76 1013.38 M100.76 1009.68 Q106.571 1009.68 109.626 1014.29 Q112.705 1018.87 112.705 1027.62 Q112.705 1036.35 109.626 1040.95 Q106.571 1045.54 100.76 1045.54 Q94.9502 1045.54 91.8715 1040.95 Q88.816 1036.35 88.816 1027.62 Q88.816 1018.87 91.8715 1014.29 Q94.9502 1009.68 100.76 1009.68 Z" fill="#000000" fill-rule="evenodd" fill-opacity="1" /><path clip-path="url(#clip670)" d="M120.922 1038.99 L125.807 1038.99 L125.807 1044.87 L120.922 1044.87 L120.922 1038.99 Z" fill="#000000" fill-rule="evenodd" fill-opacity="1" /><path clip-path="url(#clip670)" d="M136.038 1010.31 L154.394 1010.31 L154.394 1014.24 L140.32 1014.24 L140.32 1022.71 Q141.339 1022.37 142.357 1022.2 Q143.376 1022.02 144.394 1022.02 Q150.181 1022.02 153.561 1025.19 Q156.941 1028.36 156.941 1033.78 Q156.941 1039.36 153.468 1042.46 Q149.996 1045.54 143.677 1045.54 Q141.501 1045.54 139.232 1045.17 Q136.987 1044.8 134.58 1044.06 L134.58 1039.36 Q136.663 1040.49 138.885 1041.05 Q141.107 1041.6 143.584 1041.6 Q147.589 1041.6 149.927 1039.5 Q152.265 1037.39 152.265 1033.78 Q152.265 1030.17 149.927 1028.06 Q147.589 1025.95 143.584 1025.95 Q141.709 1025.95 139.834 1026.37 Q137.982 1026.79 136.038 1027.67 L136.038 1010.31 Z" fill="#000000" fill-rule="evenodd" fill-opacity="1" /><path clip-path="url(#clip670)" d="M176.153 1013.38 Q172.542 1013.38 170.714 1016.95 Q168.908 1020.49 168.908 1027.62 Q168.908 1034.73 170.714 1038.29 Q172.542 1041.83 176.153 1041.83 Q179.788 1041.83 181.593 1038.29 Q183.422 1034.73 183.422 1027.62 Q183.422 1020.49 181.593 1016.95 Q179.788 1013.38 176.153 1013.38 M176.153 1009.68 Q181.964 1009.68 185.019 1014.29 Q188.098 1018.87 188.098 1027.62 Q188.098 1036.35 185.019 1040.95 Q181.964 1045.54 176.153 1045.54 Q170.343 1045.54 167.265 1040.95 Q164.209 1036.35 164.209 1027.62 Q164.209 1018.87 167.265 1014.29 Q170.343 1009.68 176.153 1009.68 Z" fill="#000000" fill-rule="evenodd" fill-opacity="1" /><path clip-path="url(#clip670)" d="M51.9875 736.951 L81.6633 736.951 L81.6633 740.886 L51.9875 740.886 L51.9875 736.951 Z" fill="#000000" fill-rule="evenodd" fill-opacity="1" /><path clip-path="url(#clip670)" d="M101.756 722.299 Q98.1447 722.299 96.316 725.863 Q94.5104 729.405 94.5104 736.535 Q94.5104 743.641 96.316 747.206 Q98.1447 750.748 101.756 750.748 Q105.39 750.748 107.196 747.206 Q109.024 743.641 109.024 736.535 Q109.024 729.405 107.196 725.863 Q105.39 722.299 101.756 722.299 M101.756 718.595 Q107.566 718.595 110.621 723.201 Q113.7 727.785 113.7 736.535 Q113.7 745.261 110.621 749.868 Q107.566 754.451 101.756 754.451 Q95.9456 754.451 92.8669 749.868 Q89.8114 745.261 89.8114 736.535 Q89.8114 727.785 92.8669 723.201 Q95.9456 718.595 101.756 718.595 Z" fill="#000000" fill-rule="evenodd" fill-opacity="1" /><path clip-path="url(#clip670)" d="M121.918 747.9 L126.802 747.9 L126.802 753.78 L121.918 753.78 L121.918 747.9 Z" fill="#000000" fill-rule="evenodd" fill-opacity="1" /><path clip-path="url(#clip670)" d="M141.015 749.845 L157.334 749.845 L157.334 753.78 L135.39 753.78 L135.39 749.845 Q138.052 747.09 142.635 742.461 Q147.242 737.808 148.422 736.465 Q150.668 733.942 151.547 732.206 Q152.45 730.447 152.45 728.757 Q152.45 726.002 150.505 724.266 Q148.584 722.53 145.482 722.53 Q143.283 722.53 140.83 723.294 Q138.399 724.058 135.621 725.609 L135.621 720.887 Q138.445 719.752 140.899 719.174 Q143.353 718.595 145.39 718.595 Q150.76 718.595 153.955 721.28 Q157.149 723.965 157.149 728.456 Q157.149 730.586 156.339 732.507 Q155.552 734.405 153.445 736.998 Q152.867 737.669 149.765 740.886 Q146.663 744.081 141.015 749.845 Z" fill="#000000" fill-rule="evenodd" fill-opacity="1" /><path clip-path="url(#clip670)" d="M167.195 719.22 L185.552 719.22 L185.552 723.155 L171.478 723.155 L171.478 731.627 Q172.496 731.28 173.515 731.118 Q174.533 730.933 175.552 730.933 Q181.339 730.933 184.718 734.104 Q188.098 737.275 188.098 742.692 Q188.098 748.271 184.626 751.373 Q181.153 754.451 174.834 754.451 Q172.658 754.451 170.39 754.081 Q168.144 753.71 165.737 752.97 L165.737 748.271 Q167.82 749.405 170.042 749.96 Q172.265 750.516 174.741 750.516 Q178.746 750.516 181.084 748.41 Q183.422 746.303 183.422 742.692 Q183.422 739.081 181.084 736.974 Q178.746 734.868 174.741 734.868 Q172.866 734.868 170.991 735.285 Q169.14 735.701 167.195 736.581 L167.195 719.22 Z" fill="#000000" fill-rule="evenodd" fill-opacity="1" /><path clip-path="url(#clip670)" d="M100.76 431.213 Q97.1493 431.213 95.3206 434.777 Q93.515 438.319 93.515 445.449 Q93.515 452.555 95.3206 456.12 Q97.1493 459.662 100.76 459.662 Q104.395 459.662 106.2 456.12 Q108.029 452.555 108.029 445.449 Q108.029 438.319 106.2 434.777 Q104.395 431.213 100.76 431.213 M100.76 427.509 Q106.571 427.509 109.626 432.115 Q112.705 436.699 112.705 445.449 Q112.705 454.175 109.626 458.782 Q106.571 463.365 100.76 463.365 Q94.9502 463.365 91.8715 458.782 Q88.816 454.175 88.816 445.449 Q88.816 436.699 91.8715 432.115 Q94.9502 427.509 100.76 427.509 Z" fill="#000000" fill-rule="evenodd" fill-opacity="1" /><path clip-path="url(#clip670)" d="M120.922 456.814 L125.807 456.814 L125.807 462.694 L120.922 462.694 L120.922 456.814 Z" fill="#000000" fill-rule="evenodd" fill-opacity="1" /><path clip-path="url(#clip670)" d="M145.992 431.213 Q142.381 431.213 140.552 434.777 Q138.746 438.319 138.746 445.449 Q138.746 452.555 140.552 456.12 Q142.381 459.662 145.992 459.662 Q149.626 459.662 151.431 456.12 Q153.26 452.555 153.26 445.449 Q153.26 438.319 151.431 434.777 Q149.626 431.213 145.992 431.213 M145.992 427.509 Q151.802 427.509 154.857 432.115 Q157.936 436.699 157.936 445.449 Q157.936 454.175 154.857 458.782 Q151.802 463.365 145.992 463.365 Q140.181 463.365 137.103 458.782 Q134.047 454.175 134.047 445.449 Q134.047 436.699 137.103 432.115 Q140.181 427.509 145.992 427.509 Z" fill="#000000" fill-rule="evenodd" fill-opacity="1" /><path clip-path="url(#clip670)" d="M176.153 431.213 Q172.542 431.213 170.714 434.777 Q168.908 438.319 168.908 445.449 Q168.908 452.555 170.714 456.12 Q172.542 459.662 176.153 459.662 Q179.788 459.662 181.593 456.12 Q183.422 452.555 183.422 445.449 Q183.422 438.319 181.593 434.777 Q179.788 431.213 176.153 431.213 M176.153 427.509 Q181.964 427.509 185.019 432.115 Q188.098 436.699 188.098 445.449 Q188.098 454.175 185.019 458.782 Q181.964 463.365 176.153 463.365 Q170.343 463.365 167.265 458.782 Q164.209 454.175 164.209 445.449 Q164.209 436.699 167.265 432.115 Q170.343 427.509 176.153 427.509 Z" fill="#000000" fill-rule="evenodd" fill-opacity="1" /><path clip-path="url(#clip670)" d="M101.756 140.127 Q98.1447 140.127 96.316 143.691 Q94.5104 147.233 94.5104 154.363 Q94.5104 161.469 96.316 165.034 Q98.1447 168.576 101.756 168.576 Q105.39 168.576 107.196 165.034 Q109.024 161.469 109.024 154.363 Q109.024 147.233 107.196 143.691 Q105.39 140.127 101.756 140.127 M101.756 136.423 Q107.566 136.423 110.621 141.029 Q113.7 145.613 113.7 154.363 Q113.7 163.089 110.621 167.696 Q107.566 172.279 101.756 172.279 Q95.9456 172.279 92.8669 167.696 Q89.8114 163.089 89.8114 154.363 Q89.8114 145.613 92.8669 141.029 Q95.9456 136.423 101.756 136.423 Z" fill="#000000" fill-rule="evenodd" fill-opacity="1" /><path clip-path="url(#clip670)" d="M121.918 165.728 L126.802 165.728 L126.802 171.608 L121.918 171.608 L121.918 165.728 Z" fill="#000000" fill-rule="evenodd" fill-opacity="1" /><path clip-path="url(#clip670)" d="M141.015 167.673 L157.334 167.673 L157.334 171.608 L135.39 171.608 L135.39 167.673 Q138.052 164.918 142.635 160.289 Q147.242 155.636 148.422 154.293 Q150.668 151.77 151.547 150.034 Q152.45 148.275 152.45 146.585 Q152.45 143.83 150.505 142.094 Q148.584 140.358 145.482 140.358 Q143.283 140.358 140.83 141.122 Q138.399 141.886 135.621 143.437 L135.621 138.715 Q138.445 137.58 140.899 137.002 Q143.353 136.423 145.39 136.423 Q150.76 136.423 153.955 139.108 Q157.149 141.793 157.149 146.284 Q157.149 148.414 156.339 150.335 Q155.552 152.233 153.445 154.826 Q152.867 155.497 149.765 158.715 Q146.663 161.909 141.015 167.673 Z" fill="#000000" fill-rule="evenodd" fill-opacity="1" /><path clip-path="url(#clip670)" d="M167.195 137.048 L185.552 137.048 L185.552 140.983 L171.478 140.983 L171.478 149.455 Q172.496 149.108 173.515 148.946 Q174.533 148.761 175.552 148.761 Q181.339 148.761 184.718 151.932 Q188.098 155.103 188.098 160.52 Q188.098 166.099 184.626 169.201 Q181.153 172.279 174.834 172.279 Q172.658 172.279 170.39 171.909 Q168.144 171.539 165.737 170.798 L165.737 166.099 Q167.82 167.233 170.042 167.789 Q172.265 168.344 174.741 168.344 Q178.746 168.344 181.084 166.238 Q183.422 164.131 183.422 160.52 Q183.422 156.909 181.084 154.803 Q178.746 152.696 174.741 152.696 Q172.866 152.696 170.991 153.113 Q169.14 153.529 167.195 154.409 L167.195 137.048 Z" fill="#000000" fill-rule="evenodd" fill-opacity="1" /><path clip-path="url(#clip670)" d="M291.784 14.0809 L291.784 22.0612 Q287.125 19.8332 282.993 18.7395 Q278.862 17.6457 275.013 17.6457 Q268.329 17.6457 264.683 20.2383 Q261.078 22.8309 261.078 27.611 Q261.078 31.6214 263.468 33.6873 Q265.899 35.7128 272.623 36.9686 L277.565 37.9813 Q286.72 39.7232 291.055 44.1387 Q295.43 48.5136 295.43 55.8863 Q295.43 64.6767 289.515 69.2137 Q283.642 73.7508 272.259 73.7508 Q267.965 73.7508 263.103 72.7785 Q258.283 71.8063 253.098 69.9024 L253.098 61.4765 Q258.08 64.2716 262.86 65.6895 Q267.64 67.1073 272.259 67.1073 Q279.267 67.1073 283.074 64.3527 Q286.882 61.598 286.882 56.4939 Q286.882 52.0379 284.128 49.5264 Q281.414 47.0148 275.175 45.759 L270.193 44.7868 Q261.038 42.9639 256.946 39.075 Q252.855 35.1862 252.855 28.2591 Q252.855 20.2383 258.485 15.6203 Q264.157 11.0023 274.081 11.0023 Q278.335 11.0023 282.75 11.7719 Q287.166 12.5416 291.784 14.0809 Z" fill="#000000" fill-rule="evenodd" fill-opacity="1" /><path clip-path="url(#clip670)" d="M328.485 49.7694 Q319.452 49.7694 315.968 51.8354 Q312.484 53.9013 312.484 58.8839 Q312.484 62.8538 315.077 65.2034 Q317.71 67.5124 322.206 67.5124 Q328.404 67.5124 332.131 63.1374 Q335.898 58.7219 335.898 51.4303 L335.898 49.7694 L328.485 49.7694 M343.352 46.6907 L343.352 72.576 L335.898 72.576 L335.898 65.6895 Q333.346 69.8214 329.538 71.8063 Q325.73 73.7508 320.221 73.7508 Q313.254 73.7508 309.122 69.8619 Q305.03 65.9325 305.03 59.3701 Q305.03 51.7138 310.134 47.825 Q315.279 43.9361 325.447 43.9361 L335.898 43.9361 L335.898 43.2069 Q335.898 38.0623 332.495 35.2672 Q329.133 32.4315 323.016 32.4315 Q319.127 32.4315 315.441 33.3632 Q311.755 34.295 308.352 36.1584 L308.352 29.2718 Q312.444 27.692 316.292 26.9223 Q320.14 26.1121 323.786 26.1121 Q333.63 26.1121 338.491 31.2163 Q343.352 36.3204 343.352 46.6907 Z" fill="#000000" fill-rule="evenodd" fill-opacity="1" /><path clip-path="url(#clip670)" d="M353.358 27.2059 L361.257 27.2059 L375.435 65.2844 L389.613 27.2059 L397.512 27.2059 L380.499 72.576 L370.371 72.576 L353.358 27.2059 Z" fill="#000000" fill-rule="evenodd" fill-opacity="1" /><path clip-path="url(#clip670)" d="M407.802 27.2059 L415.255 27.2059 L415.255 72.576 L407.802 72.576 L407.802 27.2059 M407.802 9.54393 L415.255 9.54393 L415.255 18.9825 L407.802 18.9825 L407.802 9.54393 Z" fill="#000000" fill-rule="evenodd" fill-opacity="1" /><path clip-path="url(#clip670)" d="M468.565 45.1919 L468.565 72.576 L461.112 72.576 L461.112 45.4349 Q461.112 38.994 458.6 35.7938 Q456.089 32.5936 451.065 32.5936 Q445.03 32.5936 441.546 36.4419 Q438.062 40.2903 438.062 46.9338 L438.062 72.576 L430.568 72.576 L430.568 27.2059 L438.062 27.2059 L438.062 34.2544 Q440.736 30.163 444.341 28.1376 Q447.987 26.1121 452.726 26.1121 Q460.545 26.1121 464.555 30.9732 Q468.565 35.7938 468.565 45.1919 Z" fill="#000000" fill-rule="evenodd" fill-opacity="1" /><path clip-path="url(#clip670)" d="M513.287 49.3643 Q513.287 41.2625 509.925 36.8065 Q506.603 32.3505 500.567 32.3505 Q494.572 32.3505 491.21 36.8065 Q487.888 41.2625 487.888 49.3643 Q487.888 57.4256 491.21 61.8816 Q494.572 66.3376 500.567 66.3376 Q506.603 66.3376 509.925 61.8816 Q513.287 57.4256 513.287 49.3643 M520.741 66.9452 Q520.741 78.5308 515.596 84.1616 Q510.452 89.8329 499.838 89.8329 Q495.909 89.8329 492.425 89.2252 Q488.941 88.6581 485.66 87.4428 L485.66 80.1917 Q488.941 81.9741 492.142 82.8248 Q495.342 83.6755 498.664 83.6755 Q505.996 83.6755 509.642 79.8271 Q513.287 76.0193 513.287 68.282 L513.287 64.5957 Q510.978 68.6061 507.373 70.5911 Q503.768 72.576 498.745 72.576 Q490.4 72.576 485.296 66.2161 Q480.191 59.8562 480.191 49.3643 Q480.191 38.832 485.296 32.472 Q490.4 26.1121 498.745 26.1121 Q503.768 26.1121 507.373 28.0971 Q510.978 30.082 513.287 34.0924 L513.287 27.2059 L520.741 27.2059 L520.741 66.9452 Z" fill="#000000" fill-rule="evenodd" fill-opacity="1" /><path clip-path="url(#clip670)" d="M565.017 28.5427 L565.017 35.5912 Q561.858 33.9709 558.455 33.1607 Q555.052 32.3505 551.406 32.3505 Q545.857 32.3505 543.061 34.0519 Q540.307 35.7533 540.307 39.156 Q540.307 41.7486 542.292 43.2475 Q544.277 44.7058 550.272 46.0426 L552.824 46.6097 Q560.764 48.3111 564.086 51.4303 Q567.448 54.509 567.448 60.0587 Q567.448 66.3781 562.425 70.0644 Q557.442 73.7508 548.692 73.7508 Q545.046 73.7508 541.077 73.0216 Q537.147 72.3329 532.772 70.9151 L532.772 63.2184 Q536.904 65.3654 540.914 66.4591 Q544.925 67.5124 548.854 67.5124 Q554.12 67.5124 556.956 65.73 Q559.792 63.9071 559.792 60.6258 Q559.792 57.5877 557.726 55.9673 Q555.7 54.3469 548.773 52.8481 L546.181 52.2405 Q539.254 50.7821 536.175 47.7845 Q533.096 44.7463 533.096 39.4801 Q533.096 33.0797 537.633 29.5959 Q542.17 26.1121 550.515 26.1121 Q554.647 26.1121 558.293 26.7198 Q561.939 27.3274 565.017 28.5427 Z" fill="#000000" fill-rule="evenodd" fill-opacity="1" /><polyline clip-path="url(#clip672)" style="stroke:#009af9; stroke-linecap:butt; stroke-linejoin:round; stroke-width:4; stroke-opacity:1; fill:none" points="
  234.629,162.047 253.105,231.72 271.581,275.494 290.057,305.359 308.533,326.549 327.009,341.943 345.485,353.306 363.961,361.794 382.437,368.19 400.913,373.043 
  419.389,376.747 437.865,379.586 456.341,381.771 474.817,383.457 493.293,384.763 511.769,385.776 530.245,386.565 548.721,387.181 567.197,387.664 585.673,388.043 
  
  "/>
<polyline clip-path="url(#clip672)" style="stroke:#e26f46; stroke-linecap:butt; stroke-linejoin:round; stroke-width:4; stroke-opacity:1; fill:none" points="
  234.629,445.414 253.105,962.871 271.581,1140.96 290.057,1242.11 308.533,1304.98 327.009,1346.19 345.485,1374.26 363.961,1393.94 382.437,1408.05 400.913,1418.35 
  419.389,1425.97 437.865,1431.67 456.341,1435.98 474.817,1439.25 493.293,1441.75 511.769,1443.67 530.245,1445.15 548.721,1446.29 567.197,1447.18 585.673,1447.87 
  
  "/>
<path clip-path="url(#clip670)" d="
M799.561 1486.45 L1171.67 1486.45 L1171.67 123.472 L799.561 123.472  Z
  " fill="#ffffff" fill-rule="evenodd" fill-opacity="1"/>
<defs>
  <clipPath id="clip673">
    <rect x="799" y="123" width="373" height="1364"/>
  </clipPath>
</defs>
<polyline clip-path="url(#clip673)" style="stroke:#000000; stroke-linecap:butt; stroke-linejoin:round; stroke-width:2; stroke-opacity:0.1; fill:none" points="
  810.092,1486.45 810.092,123.472 
  "/>
<polyline clip-path="url(#clip673)" style="stroke:#000000; stroke-linecap:butt; stroke-linejoin:round; stroke-width:2; stroke-opacity:0.1; fill:none" points="
  902.288,1486.45 902.288,123.472 
  "/>
<polyline clip-path="url(#clip673)" style="stroke:#000000; stroke-linecap:butt; stroke-linejoin:round; stroke-width:2; stroke-opacity:0.1; fill:none" points="
  994.483,1486.45 994.483,123.472 
  "/>
<polyline clip-path="url(#clip673)" style="stroke:#000000; stroke-linecap:butt; stroke-linejoin:round; stroke-width:2; stroke-opacity:0.1; fill:none" points="
  1086.68,1486.45 1086.68,123.472 
  "/>
<polyline clip-path="url(#clip670)" style="stroke:#000000; stroke-linecap:butt; stroke-linejoin:round; stroke-width:4; stroke-opacity:1; fill:none" points="
  799.561,1486.45 1171.67,1486.45 
  "/>
<polyline clip-path="url(#clip670)" style="stroke:#000000; stroke-linecap:butt; stroke-linejoin:round; stroke-width:4; stroke-opacity:1; fill:none" points="
  810.092,1486.45 810.092,1470.09 
  "/>
<polyline clip-path="url(#clip670)" style="stroke:#000000; stroke-linecap:butt; stroke-linejoin:round; stroke-width:4; stroke-opacity:1; fill:none" points="
  902.288,1486.45 902.288,1470.09 
  "/>
<polyline clip-path="url(#clip670)" style="stroke:#000000; stroke-linecap:butt; stroke-linejoin:round; stroke-width:4; stroke-opacity:1; fill:none" points="
  994.483,1486.45 994.483,1470.09 
  "/>
<polyline clip-path="url(#clip670)" style="stroke:#000000; stroke-linecap:butt; stroke-linejoin:round; stroke-width:4; stroke-opacity:1; fill:none" points="
  1086.68,1486.45 1086.68,1470.09 
  "/>
<path clip-path="url(#clip670)" d="M810.092 1515.64 Q806.481 1515.64 804.653 1519.2 Q802.847 1522.75 802.847 1529.87 Q802.847 1536.98 804.653 1540.55 Q806.481 1544.09 810.092 1544.09 Q813.727 1544.09 815.532 1540.55 Q817.361 1536.98 817.361 1529.87 Q817.361 1522.75 815.532 1519.2 Q813.727 1515.64 810.092 1515.64 M810.092 1511.93 Q815.902 1511.93 818.958 1516.54 Q822.037 1521.12 822.037 1529.87 Q822.037 1538.6 818.958 1543.21 Q815.902 1547.79 810.092 1547.79 Q804.282 1547.79 801.203 1543.21 Q798.148 1538.6 798.148 1529.87 Q798.148 1521.12 801.203 1516.54 Q804.282 1511.93 810.092 1511.93 Z" fill="#000000" fill-rule="evenodd" fill-opacity="1" /><path clip-path="url(#clip670)" d="M892.565 1512.56 L910.922 1512.56 L910.922 1516.5 L896.848 1516.5 L896.848 1524.97 Q897.866 1524.62 898.885 1524.46 Q899.903 1524.27 900.922 1524.27 Q906.709 1524.27 910.088 1527.44 Q913.468 1530.62 913.468 1536.03 Q913.468 1541.61 909.996 1544.71 Q906.524 1547.79 900.204 1547.79 Q898.028 1547.79 895.76 1547.42 Q893.514 1547.05 891.107 1546.31 L891.107 1541.61 Q893.19 1542.74 895.413 1543.3 Q897.635 1543.86 900.112 1543.86 Q904.116 1543.86 906.454 1541.75 Q908.792 1539.64 908.792 1536.03 Q908.792 1532.42 906.454 1530.31 Q904.116 1528.21 900.112 1528.21 Q898.237 1528.21 896.362 1528.62 Q894.51 1529.04 892.565 1529.92 L892.565 1512.56 Z" fill="#000000" fill-rule="evenodd" fill-opacity="1" /><path clip-path="url(#clip670)" d="M969.171 1543.18 L976.809 1543.18 L976.809 1516.82 L968.499 1518.49 L968.499 1514.23 L976.763 1512.56 L981.439 1512.56 L981.439 1543.18 L989.078 1543.18 L989.078 1547.12 L969.171 1547.12 L969.171 1543.18 Z" fill="#000000" fill-rule="evenodd" fill-opacity="1" /><path clip-path="url(#clip670)" d="M1008.52 1515.64 Q1004.91 1515.64 1003.08 1519.2 Q1001.28 1522.75 1001.28 1529.87 Q1001.28 1536.98 1003.08 1540.55 Q1004.91 1544.09 1008.52 1544.09 Q1012.16 1544.09 1013.96 1540.55 Q1015.79 1536.98 1015.79 1529.87 Q1015.79 1522.75 1013.96 1519.2 Q1012.16 1515.64 1008.52 1515.64 M1008.52 1511.93 Q1014.33 1511.93 1017.39 1516.54 Q1020.47 1521.12 1020.47 1529.87 Q1020.47 1538.6 1017.39 1543.21 Q1014.33 1547.79 1008.52 1547.79 Q1002.71 1547.79 999.633 1543.21 Q996.578 1538.6 996.578 1529.87 Q996.578 1521.12 999.633 1516.54 Q1002.71 1511.93 1008.52 1511.93 Z" fill="#000000" fill-rule="evenodd" fill-opacity="1" /><path clip-path="url(#clip670)" d="M1061.86 1543.18 L1069.5 1543.18 L1069.5 1516.82 L1061.19 1518.49 L1061.19 1514.23 L1069.46 1512.56 L1074.13 1512.56 L1074.13 1543.18 L1081.77 1543.18 L1081.77 1547.12 L1061.86 1547.12 L1061.86 1543.18 Z" fill="#000000" fill-rule="evenodd" fill-opacity="1" /><path clip-path="url(#clip670)" d="M1091.26 1512.56 L1109.62 1512.56 L1109.62 1516.5 L1095.54 1516.5 L1095.54 1524.97 Q1096.56 1524.62 1097.58 1524.46 Q1098.6 1524.27 1099.62 1524.27 Q1105.4 1524.27 1108.78 1527.44 Q1112.16 1530.62 1112.16 1536.03 Q1112.16 1541.61 1108.69 1544.71 Q1105.22 1547.79 1098.9 1547.79 Q1096.72 1547.79 1094.46 1547.42 Q1092.21 1547.05 1089.8 1546.31 L1089.8 1541.61 Q1091.89 1542.74 1094.11 1543.3 Q1096.33 1543.86 1098.81 1543.86 Q1102.81 1543.86 1105.15 1541.75 Q1107.49 1539.64 1107.49 1536.03 Q1107.49 1532.42 1105.15 1530.31 Q1102.81 1528.21 1098.81 1528.21 Q1096.93 1528.21 1095.06 1528.62 Q1093.21 1529.04 1091.26 1529.92 L1091.26 1512.56 Z" fill="#000000" fill-rule="evenodd" fill-opacity="1" /><polyline clip-path="url(#clip673)" style="stroke:#000000; stroke-linecap:butt; stroke-linejoin:round; stroke-width:2; stroke-opacity:0.1; fill:none" points="
  799.561,1447.87 1171.67,1447.87 
  "/>
<polyline clip-path="url(#clip673)" style="stroke:#000000; stroke-linecap:butt; stroke-linejoin:round; stroke-width:2; stroke-opacity:0.1; fill:none" points="
  799.561,1144.17 1171.67,1144.17 
  "/>
<polyline clip-path="url(#clip673)" style="stroke:#000000; stroke-linecap:butt; stroke-linejoin:round; stroke-width:2; stroke-opacity:0.1; fill:none" points="
  799.561,840.472 1171.67,840.472 
  "/>
<polyline clip-path="url(#clip673)" style="stroke:#000000; stroke-linecap:butt; stroke-linejoin:round; stroke-width:2; stroke-opacity:0.1; fill:none" points="
  799.561,536.771 1171.67,536.771 
  "/>
<polyline clip-path="url(#clip673)" style="stroke:#000000; stroke-linecap:butt; stroke-linejoin:round; stroke-width:2; stroke-opacity:0.1; fill:none" points="
  799.561,233.07 1171.67,233.07 
  "/>
<polyline clip-path="url(#clip670)" style="stroke:#000000; stroke-linecap:butt; stroke-linejoin:round; stroke-width:4; stroke-opacity:1; fill:none" points="
  799.561,1486.45 799.561,123.472 
  "/>
<polyline clip-path="url(#clip670)" style="stroke:#000000; stroke-linecap:butt; stroke-linejoin:round; stroke-width:4; stroke-opacity:1; fill:none" points="
  799.561,1447.87 804.026,1447.87 
  "/>
<polyline clip-path="url(#clip670)" style="stroke:#000000; stroke-linecap:butt; stroke-linejoin:round; stroke-width:4; stroke-opacity:1; fill:none" points="
  799.561,1144.17 804.026,1144.17 
  "/>
<polyline clip-path="url(#clip670)" style="stroke:#000000; stroke-linecap:butt; stroke-linejoin:round; stroke-width:4; stroke-opacity:1; fill:none" points="
  799.561,840.472 804.026,840.472 
  "/>
<polyline clip-path="url(#clip670)" style="stroke:#000000; stroke-linecap:butt; stroke-linejoin:round; stroke-width:4; stroke-opacity:1; fill:none" points="
  799.561,536.771 804.026,536.771 
  "/>
<polyline clip-path="url(#clip670)" style="stroke:#000000; stroke-linecap:butt; stroke-linejoin:round; stroke-width:4; stroke-opacity:1; fill:none" points="
  799.561,233.07 804.026,233.07 
  "/>
<path clip-path="url(#clip670)" d="M706.385 1433.67 Q702.774 1433.67 700.946 1437.24 Q699.14 1440.78 699.14 1447.91 Q699.14 1455.01 700.946 1458.58 Q702.774 1462.12 706.385 1462.12 Q710.02 1462.12 711.825 1458.58 Q713.654 1455.01 713.654 1447.91 Q713.654 1440.78 711.825 1437.24 Q710.02 1433.67 706.385 1433.67 M706.385 1429.97 Q712.196 1429.97 715.251 1434.57 Q718.33 1439.16 718.33 1447.91 Q718.33 1456.63 715.251 1461.24 Q712.196 1465.82 706.385 1465.82 Q700.575 1465.82 697.497 1461.24 Q694.441 1456.63 694.441 1447.91 Q694.441 1439.16 697.497 1434.57 Q700.575 1429.97 706.385 1429.97 Z" fill="#000000" fill-rule="evenodd" fill-opacity="1" /><path clip-path="url(#clip670)" d="M726.547 1459.27 L731.432 1459.27 L731.432 1465.15 L726.547 1465.15 L726.547 1459.27 Z" fill="#000000" fill-rule="evenodd" fill-opacity="1" /><path clip-path="url(#clip670)" d="M751.617 1433.67 Q748.005 1433.67 746.177 1437.24 Q744.371 1440.78 744.371 1447.91 Q744.371 1455.01 746.177 1458.58 Q748.005 1462.12 751.617 1462.12 Q755.251 1462.12 757.056 1458.58 Q758.885 1455.01 758.885 1447.91 Q758.885 1440.78 757.056 1437.24 Q755.251 1433.67 751.617 1433.67 M751.617 1429.97 Q757.427 1429.97 760.482 1434.57 Q763.561 1439.16 763.561 1447.91 Q763.561 1456.63 760.482 1461.24 Q757.427 1465.82 751.617 1465.82 Q745.806 1465.82 742.728 1461.24 Q739.672 1456.63 739.672 1447.91 Q739.672 1439.16 742.728 1434.57 Q745.806 1429.97 751.617 1429.97 Z" fill="#000000" fill-rule="evenodd" fill-opacity="1" /><path clip-path="url(#clip670)" d="M707.381 1129.97 Q703.77 1129.97 701.941 1133.54 Q700.135 1137.08 700.135 1144.21 Q700.135 1151.31 701.941 1154.88 Q703.77 1158.42 707.381 1158.42 Q711.015 1158.42 712.82 1154.88 Q714.649 1151.31 714.649 1144.21 Q714.649 1137.08 712.82 1133.54 Q711.015 1129.97 707.381 1129.97 M707.381 1126.27 Q713.191 1126.27 716.246 1130.87 Q719.325 1135.46 719.325 1144.21 Q719.325 1152.93 716.246 1157.54 Q713.191 1162.12 707.381 1162.12 Q701.571 1162.12 698.492 1157.54 Q695.436 1152.93 695.436 1144.21 Q695.436 1135.46 698.492 1130.87 Q701.571 1126.27 707.381 1126.27 Z" fill="#000000" fill-rule="evenodd" fill-opacity="1" /><path clip-path="url(#clip670)" d="M727.543 1155.57 L732.427 1155.57 L732.427 1161.45 L727.543 1161.45 L727.543 1155.57 Z" fill="#000000" fill-rule="evenodd" fill-opacity="1" /><path clip-path="url(#clip670)" d="M742.658 1126.89 L761.015 1126.89 L761.015 1130.83 L746.941 1130.83 L746.941 1139.3 Q747.959 1138.95 748.978 1138.79 Q749.996 1138.61 751.015 1138.61 Q756.802 1138.61 760.181 1141.78 Q763.561 1144.95 763.561 1150.36 Q763.561 1155.94 760.089 1159.04 Q756.617 1162.12 750.297 1162.12 Q748.121 1162.12 745.853 1161.75 Q743.607 1161.38 741.2 1160.64 L741.2 1155.94 Q743.283 1157.08 745.506 1157.63 Q747.728 1158.19 750.205 1158.19 Q754.209 1158.19 756.547 1156.08 Q758.885 1153.98 758.885 1150.36 Q758.885 1146.75 756.547 1144.65 Q754.209 1142.54 750.205 1142.54 Q748.33 1142.54 746.455 1142.96 Q744.603 1143.37 742.658 1144.25 L742.658 1126.89 Z" fill="#000000" fill-rule="evenodd" fill-opacity="1" /><path clip-path="url(#clip670)" d="M697.196 853.817 L704.834 853.817 L704.834 827.451 L696.524 829.118 L696.524 824.858 L704.788 823.192 L709.464 823.192 L709.464 853.817 L717.103 853.817 L717.103 857.752 L697.196 857.752 L697.196 853.817 Z" fill="#000000" fill-rule="evenodd" fill-opacity="1" /><path clip-path="url(#clip670)" d="M726.547 851.872 L731.432 851.872 L731.432 857.752 L726.547 857.752 L726.547 851.872 Z" fill="#000000" fill-rule="evenodd" fill-opacity="1" /><path clip-path="url(#clip670)" d="M751.617 826.27 Q748.005 826.27 746.177 829.835 Q744.371 833.377 744.371 840.506 Q744.371 847.613 746.177 851.178 Q748.005 854.719 751.617 854.719 Q755.251 854.719 757.056 851.178 Q758.885 847.613 758.885 840.506 Q758.885 833.377 757.056 829.835 Q755.251 826.27 751.617 826.27 M751.617 822.567 Q757.427 822.567 760.482 827.173 Q763.561 831.756 763.561 840.506 Q763.561 849.233 760.482 853.84 Q757.427 858.423 751.617 858.423 Q745.806 858.423 742.728 853.84 Q739.672 849.233 739.672 840.506 Q739.672 831.756 742.728 827.173 Q745.806 822.567 751.617 822.567 Z" fill="#000000" fill-rule="evenodd" fill-opacity="1" /><path clip-path="url(#clip670)" d="M698.191 550.116 L705.83 550.116 L705.83 523.75 L697.52 525.417 L697.52 521.158 L705.783 519.491 L710.459 519.491 L710.459 550.116 L718.098 550.116 L718.098 554.051 L698.191 554.051 L698.191 550.116 Z" fill="#000000" fill-rule="evenodd" fill-opacity="1" /><path clip-path="url(#clip670)" d="M727.543 548.171 L732.427 548.171 L732.427 554.051 L727.543 554.051 L727.543 548.171 Z" fill="#000000" fill-rule="evenodd" fill-opacity="1" /><path clip-path="url(#clip670)" d="M742.658 519.491 L761.015 519.491 L761.015 523.426 L746.941 523.426 L746.941 531.898 Q747.959 531.551 748.978 531.389 Q749.996 531.204 751.015 531.204 Q756.802 531.204 760.181 534.375 Q763.561 537.546 763.561 542.963 Q763.561 548.542 760.089 551.644 Q756.617 554.722 750.297 554.722 Q748.121 554.722 745.853 554.352 Q743.607 553.982 741.2 553.241 L741.2 548.542 Q743.283 549.676 745.506 550.232 Q747.728 550.787 750.205 550.787 Q754.209 550.787 756.547 548.681 Q758.885 546.574 758.885 542.963 Q758.885 539.352 756.547 537.246 Q754.209 535.139 750.205 535.139 Q748.33 535.139 746.455 535.556 Q744.603 535.972 742.658 536.852 L742.658 519.491 Z" fill="#000000" fill-rule="evenodd" fill-opacity="1" /><path clip-path="url(#clip670)" d="M700.413 246.415 L716.733 246.415 L716.733 250.35 L694.788 250.35 L694.788 246.415 Q697.45 243.66 702.034 239.031 Q706.64 234.378 707.821 233.036 Q710.066 230.512 710.946 228.776 Q711.848 227.017 711.848 225.327 Q711.848 222.573 709.904 220.837 Q707.983 219.1 704.881 219.1 Q702.682 219.1 700.228 219.864 Q697.797 220.628 695.02 222.179 L695.02 217.457 Q697.844 216.323 700.297 215.744 Q702.751 215.165 704.788 215.165 Q710.158 215.165 713.353 217.85 Q716.547 220.536 716.547 225.026 Q716.547 227.156 715.737 229.077 Q714.95 230.975 712.844 233.568 Q712.265 234.239 709.163 237.457 Q706.061 240.651 700.413 246.415 Z" fill="#000000" fill-rule="evenodd" fill-opacity="1" /><path clip-path="url(#clip670)" d="M726.547 244.471 L731.432 244.471 L731.432 250.35 L726.547 250.35 L726.547 244.471 Z" fill="#000000" fill-rule="evenodd" fill-opacity="1" /><path clip-path="url(#clip670)" d="M751.617 218.869 Q748.005 218.869 746.177 222.434 Q744.371 225.975 744.371 233.105 Q744.371 240.211 746.177 243.776 Q748.005 247.318 751.617 247.318 Q755.251 247.318 757.056 243.776 Q758.885 240.211 758.885 233.105 Q758.885 225.975 757.056 222.434 Q755.251 218.869 751.617 218.869 M751.617 215.165 Q757.427 215.165 760.482 219.772 Q763.561 224.355 763.561 233.105 Q763.561 241.832 760.482 246.438 Q757.427 251.022 751.617 251.022 Q745.806 251.022 742.728 246.438 Q739.672 241.832 739.672 233.105 Q739.672 224.355 742.728 219.772 Q745.806 215.165 751.617 215.165 Z" fill="#000000" fill-rule="evenodd" fill-opacity="1" /><path clip-path="url(#clip670)" d="M765.509 16.7545 L765.509 25.383 Q761.377 21.5346 756.678 19.6307 Q752.019 17.7268 746.753 17.7268 Q736.383 17.7268 730.873 24.0867 Q725.364 30.4061 725.364 42.3968 Q725.364 54.3469 730.873 60.7069 Q736.383 67.0263 746.753 67.0263 Q752.019 67.0263 756.678 65.1223 Q761.377 63.2184 765.509 59.3701 L765.509 67.9175 Q761.215 70.8341 756.394 72.2924 Q751.614 73.7508 746.267 73.7508 Q732.534 73.7508 724.635 65.3654 Q716.736 56.9395 716.736 42.3968 Q716.736 27.8135 724.635 19.4281 Q732.534 11.0023 746.267 11.0023 Q751.695 11.0023 756.475 12.4606 Q761.296 13.8784 765.509 16.7545 Z" fill="#000000" fill-rule="evenodd" fill-opacity="1" /><path clip-path="url(#clip670)" d="M795.404 32.4315 Q789.409 32.4315 785.925 37.1306 Q782.441 41.7891 782.441 49.9314 Q782.441 58.0738 785.885 62.7728 Q789.368 67.4314 795.404 67.4314 Q801.359 67.4314 804.843 62.7323 Q808.327 58.0333 808.327 49.9314 Q808.327 41.8701 804.843 37.1711 Q801.359 32.4315 795.404 32.4315 M795.404 26.1121 Q805.126 26.1121 810.676 32.4315 Q816.226 38.7509 816.226 49.9314 Q816.226 61.0714 810.676 67.4314 Q805.126 73.7508 795.404 73.7508 Q785.642 73.7508 780.092 67.4314 Q774.583 61.0714 774.583 49.9314 Q774.583 38.7509 780.092 32.4315 Q785.642 26.1121 795.404 26.1121 Z" fill="#000000" fill-rule="evenodd" fill-opacity="1" /><path clip-path="url(#clip670)" d="M866.295 45.1919 L866.295 72.576 L858.841 72.576 L858.841 45.4349 Q858.841 38.994 856.33 35.7938 Q853.818 32.5936 848.795 32.5936 Q842.759 32.5936 839.275 36.4419 Q835.792 40.2903 835.792 46.9338 L835.792 72.576 L828.298 72.576 L828.298 27.2059 L835.792 27.2059 L835.792 34.2544 Q838.465 30.163 842.071 28.1376 Q845.716 26.1121 850.456 26.1121 Q858.274 26.1121 862.285 30.9732 Q866.295 35.7938 866.295 45.1919 Z" fill="#000000" fill-rule="evenodd" fill-opacity="1" /><path clip-path="url(#clip670)" d="M910.085 28.5427 L910.085 35.5912 Q906.926 33.9709 903.523 33.1607 Q900.12 32.3505 896.474 32.3505 Q890.925 32.3505 888.129 34.0519 Q885.375 35.7533 885.375 39.156 Q885.375 41.7486 887.36 43.2475 Q889.345 44.7058 895.34 46.0426 L897.892 46.6097 Q905.832 48.3111 909.154 51.4303 Q912.516 54.509 912.516 60.0587 Q912.516 66.3781 907.493 70.0644 Q902.51 73.7508 893.76 73.7508 Q890.114 73.7508 886.144 73.0216 Q882.215 72.3329 877.84 70.9151 L877.84 63.2184 Q881.972 65.3654 885.982 66.4591 Q889.993 67.5124 893.922 67.5124 Q899.188 67.5124 902.024 65.73 Q904.86 63.9071 904.86 60.6258 Q904.86 57.5877 902.794 55.9673 Q900.768 54.3469 893.841 52.8481 L891.249 52.2405 Q884.322 50.7821 881.243 47.7845 Q878.164 44.7463 878.164 39.4801 Q878.164 33.0797 882.701 29.5959 Q887.238 26.1121 895.583 26.1121 Q899.715 26.1121 903.361 26.7198 Q907.007 27.3274 910.085 28.5427 Z" fill="#000000" fill-rule="evenodd" fill-opacity="1" /><path clip-path="url(#clip670)" d="M923.615 54.671 L923.615 27.2059 L931.069 27.2059 L931.069 54.3874 Q931.069 60.8284 933.581 64.0691 Q936.092 67.2693 941.115 67.2693 Q947.151 67.2693 950.635 63.421 Q954.159 59.5726 954.159 52.9291 L954.159 27.2059 L961.613 27.2059 L961.613 72.576 L954.159 72.576 L954.159 65.6084 Q951.445 69.7404 947.84 71.7658 Q944.275 73.7508 939.535 73.7508 Q931.717 73.7508 927.666 68.8897 Q923.615 64.0286 923.615 54.671 M942.371 26.1121 L942.371 26.1121 Z" fill="#000000" fill-rule="evenodd" fill-opacity="1" /><path clip-path="url(#clip670)" d="M1012.29 35.9153 Q1015.08 30.8922 1018.97 28.5022 Q1022.86 26.1121 1028.13 26.1121 Q1035.22 26.1121 1039.07 31.0947 Q1042.91 36.0368 1042.91 45.1919 L1042.91 72.576 L1035.42 72.576 L1035.42 45.4349 Q1035.42 38.913 1033.11 35.7533 Q1030.8 32.5936 1026.06 32.5936 Q1020.27 32.5936 1016.91 36.4419 Q1013.55 40.2903 1013.55 46.9338 L1013.55 72.576 L1006.05 72.576 L1006.05 45.4349 Q1006.05 38.8725 1003.74 35.7533 Q1001.43 32.5936 996.613 32.5936 Q990.901 32.5936 987.539 36.4824 Q984.176 40.3308 984.176 46.9338 L984.176 72.576 L976.682 72.576 L976.682 27.2059 L984.176 27.2059 L984.176 34.2544 Q986.728 30.082 990.293 28.0971 Q993.858 26.1121 998.76 26.1121 Q1003.7 26.1121 1007.14 28.6237 Q1010.63 31.1352 1012.29 35.9153 Z" fill="#000000" fill-rule="evenodd" fill-opacity="1" /><path clip-path="url(#clip670)" d="M1064.99 65.7705 L1064.99 89.8329 L1057.5 89.8329 L1057.5 27.2059 L1064.99 27.2059 L1064.99 34.0924 Q1067.34 30.0415 1070.91 28.0971 Q1074.51 26.1121 1079.49 26.1121 Q1087.76 26.1121 1092.9 32.6746 Q1098.09 39.2371 1098.09 49.9314 Q1098.09 60.6258 1092.9 67.1883 Q1087.76 73.7508 1079.49 73.7508 Q1074.51 73.7508 1070.91 71.8063 Q1067.34 69.8214 1064.99 65.7705 M1090.35 49.9314 Q1090.35 41.7081 1086.95 37.0496 Q1083.59 32.3505 1077.67 32.3505 Q1071.76 32.3505 1068.35 37.0496 Q1064.99 41.7081 1064.99 49.9314 Q1064.99 58.1548 1068.35 62.8538 Q1071.76 67.5124 1077.67 67.5124 Q1083.59 67.5124 1086.95 62.8538 Q1090.35 58.1548 1090.35 49.9314 Z" fill="#000000" fill-rule="evenodd" fill-opacity="1" /><path clip-path="url(#clip670)" d="M1117.82 14.324 L1117.82 27.2059 L1133.17 27.2059 L1133.17 32.9987 L1117.82 32.9987 L1117.82 57.6282 Q1117.82 63.1779 1119.31 64.7578 Q1120.85 66.3376 1125.51 66.3376 L1133.17 66.3376 L1133.17 72.576 L1125.51 72.576 Q1116.88 72.576 1113.6 69.3758 Q1110.32 66.1351 1110.32 57.6282 L1110.32 32.9987 L1104.85 32.9987 L1104.85 27.2059 L1110.32 27.2059 L1110.32 14.324 L1117.82 14.324 Z" fill="#000000" fill-rule="evenodd" fill-opacity="1" /><path clip-path="url(#clip670)" d="M1142.97 27.2059 L1150.43 27.2059 L1150.43 72.576 L1142.97 72.576 L1142.97 27.2059 M1142.97 9.54393 L1150.43 9.54393 L1150.43 18.9825 L1142.97 18.9825 L1142.97 9.54393 Z" fill="#000000" fill-rule="evenodd" fill-opacity="1" /><path clip-path="url(#clip670)" d="M1183.6 32.4315 Q1177.61 32.4315 1174.12 37.1306 Q1170.64 41.7891 1170.64 49.9314 Q1170.64 58.0738 1174.08 62.7728 Q1177.57 67.4314 1183.6 67.4314 Q1189.56 67.4314 1193.04 62.7323 Q1196.52 58.0333 1196.52 49.9314 Q1196.52 41.8701 1193.04 37.1711 Q1189.56 32.4315 1183.6 32.4315 M1183.6 26.1121 Q1193.32 26.1121 1198.87 32.4315 Q1204.42 38.7509 1204.42 49.9314 Q1204.42 61.0714 1198.87 67.4314 Q1193.32 73.7508 1183.6 73.7508 Q1173.84 73.7508 1168.29 67.4314 Q1162.78 61.0714 1162.78 49.9314 Q1162.78 38.7509 1168.29 32.4315 Q1173.84 26.1121 1183.6 26.1121 Z" fill="#000000" fill-rule="evenodd" fill-opacity="1" /><path clip-path="url(#clip670)" d="M1254.49 45.1919 L1254.49 72.576 L1247.04 72.576 L1247.04 45.4349 Q1247.04 38.994 1244.53 35.7938 Q1242.02 32.5936 1236.99 32.5936 Q1230.96 32.5936 1227.47 36.4419 Q1223.99 40.2903 1223.99 46.9338 L1223.99 72.576 L1216.5 72.576 L1216.5 27.2059 L1223.99 27.2059 L1223.99 34.2544 Q1226.66 30.163 1230.27 28.1376 Q1233.91 26.1121 1238.65 26.1121 Q1246.47 26.1121 1250.48 30.9732 Q1254.49 35.7938 1254.49 45.1919 Z" fill="#000000" fill-rule="evenodd" fill-opacity="1" /><polyline clip-path="url(#clip673)" style="stroke:#009af9; stroke-linecap:butt; stroke-linejoin:round; stroke-width:4; stroke-opacity:1; fill:none" points="
  810.092,419.884 828.568,376.173 847.044,345.972 865.52,323.027 883.996,304.607 902.472,289.211 920.948,275.918 939.424,264.125 957.9,253.423 976.376,243.525 
  994.852,234.228 1013.33,225.381 1031.8,216.876 1050.28,208.631 1068.76,200.585 1087.23,192.691 1105.71,184.914 1124.18,177.227 1142.66,169.61 1161.14,162.047 
  
  "/>
<polyline clip-path="url(#clip673)" style="stroke:#e26f46; stroke-linecap:butt; stroke-linejoin:round; stroke-width:4; stroke-opacity:1; fill:none" points="
  810.092,1447.87 828.568,563.696 847.044,463.426 865.52,403.294 883.996,363.134 902.472,334.269 920.948,312.261 939.424,294.629 957.9,279.903 976.376,267.165 
  994.852,255.824 1013.33,245.483 1031.8,235.873 1050.28,226.801 1068.76,218.131 1087.23,209.764 1105.71,201.627 1124.18,193.664 1142.66,185.835 1161.14,178.108 
  
  "/>
<path clip-path="url(#clip670)" d="
M1405.19 1486.45 L2352.76 1486.45 L2352.76 123.472 L1405.19 123.472  Z
  " fill="#ffffff" fill-rule="evenodd" fill-opacity="1"/>
<defs>
  <clipPath id="clip674">
    <rect x="1405" y="123" width="949" height="1364"/>
  </clipPath>
</defs>
<polyline clip-path="url(#clip674)" style="stroke:#000000; stroke-linecap:butt; stroke-linejoin:round; stroke-width:2; stroke-opacity:0.1; fill:none" points="
  1432,1486.45 1432,123.472 
  "/>
<polyline clip-path="url(#clip674)" style="stroke:#000000; stroke-linecap:butt; stroke-linejoin:round; stroke-width:2; stroke-opacity:0.1; fill:none" points="
  1657.29,1486.45 1657.29,123.472 
  "/>
<polyline clip-path="url(#clip674)" style="stroke:#000000; stroke-linecap:butt; stroke-linejoin:round; stroke-width:2; stroke-opacity:0.1; fill:none" points="
  1882.58,1486.45 1882.58,123.472 
  "/>
<polyline clip-path="url(#clip674)" style="stroke:#000000; stroke-linecap:butt; stroke-linejoin:round; stroke-width:2; stroke-opacity:0.1; fill:none" points="
  2107.87,1486.45 2107.87,123.472 
  "/>
<polyline clip-path="url(#clip674)" style="stroke:#000000; stroke-linecap:butt; stroke-linejoin:round; stroke-width:2; stroke-opacity:0.1; fill:none" points="
  2333.16,1486.45 2333.16,123.472 
  "/>
<polyline clip-path="url(#clip670)" style="stroke:#000000; stroke-linecap:butt; stroke-linejoin:round; stroke-width:4; stroke-opacity:1; fill:none" points="
  1405.19,1486.45 2352.76,1486.45 
  "/>
<polyline clip-path="url(#clip670)" style="stroke:#000000; stroke-linecap:butt; stroke-linejoin:round; stroke-width:4; stroke-opacity:1; fill:none" points="
  1432,1486.45 1432,1470.09 
  "/>
<polyline clip-path="url(#clip670)" style="stroke:#000000; stroke-linecap:butt; stroke-linejoin:round; stroke-width:4; stroke-opacity:1; fill:none" points="
  1657.29,1486.45 1657.29,1470.09 
  "/>
<polyline clip-path="url(#clip670)" style="stroke:#000000; stroke-linecap:butt; stroke-linejoin:round; stroke-width:4; stroke-opacity:1; fill:none" points="
  1882.58,1486.45 1882.58,1470.09 
  "/>
<polyline clip-path="url(#clip670)" style="stroke:#000000; stroke-linecap:butt; stroke-linejoin:round; stroke-width:4; stroke-opacity:1; fill:none" points="
  2107.87,1486.45 2107.87,1470.09 
  "/>
<polyline clip-path="url(#clip670)" style="stroke:#000000; stroke-linecap:butt; stroke-linejoin:round; stroke-width:4; stroke-opacity:1; fill:none" points="
  2333.16,1486.45 2333.16,1470.09 
  "/>
<path clip-path="url(#clip670)" d="M1432 1515.64 Q1428.39 1515.64 1426.56 1519.2 Q1424.76 1522.75 1424.76 1529.87 Q1424.76 1536.98 1426.56 1540.55 Q1428.39 1544.09 1432 1544.09 Q1435.64 1544.09 1437.44 1540.55 Q1439.27 1536.98 1439.27 1529.87 Q1439.27 1522.75 1437.44 1519.2 Q1435.64 1515.64 1432 1515.64 M1432 1511.93 Q1437.81 1511.93 1440.87 1516.54 Q1443.95 1521.12 1443.95 1529.87 Q1443.95 1538.6 1440.87 1543.21 Q1437.81 1547.79 1432 1547.79 Q1426.19 1547.79 1423.12 1543.21 Q1420.06 1538.6 1420.06 1529.87 Q1420.06 1521.12 1423.12 1516.54 Q1426.19 1511.93 1432 1511.93 Z" fill="#000000" fill-rule="evenodd" fill-opacity="1" /><path clip-path="url(#clip670)" d="M1636.56 1543.18 L1652.88 1543.18 L1652.88 1547.12 L1630.94 1547.12 L1630.94 1543.18 Q1633.6 1540.43 1638.18 1535.8 Q1642.79 1531.15 1643.97 1529.81 Q1646.22 1527.28 1647.1 1525.55 Q1648 1523.79 1648 1522.1 Q1648 1519.34 1646.05 1517.61 Q1644.13 1515.87 1641.03 1515.87 Q1638.83 1515.87 1636.38 1516.63 Q1633.95 1517.4 1631.17 1518.95 L1631.17 1514.23 Q1633.99 1513.09 1636.45 1512.51 Q1638.9 1511.93 1640.94 1511.93 Q1646.31 1511.93 1649.5 1514.62 Q1652.7 1517.31 1652.7 1521.8 Q1652.7 1523.93 1651.89 1525.85 Q1651.1 1527.74 1648.99 1530.34 Q1648.42 1531.01 1645.31 1534.23 Q1642.21 1537.42 1636.56 1543.18 Z" fill="#000000" fill-rule="evenodd" fill-opacity="1" /><path clip-path="url(#clip670)" d="M1662.74 1512.56 L1681.1 1512.56 L1681.1 1516.5 L1667.03 1516.5 L1667.03 1524.97 Q1668.05 1524.62 1669.06 1524.46 Q1670.08 1524.27 1671.1 1524.27 Q1676.89 1524.27 1680.27 1527.44 Q1683.65 1530.62 1683.65 1536.03 Q1683.65 1541.61 1680.18 1544.71 Q1676.7 1547.79 1670.38 1547.79 Q1668.21 1547.79 1665.94 1547.42 Q1663.69 1547.05 1661.29 1546.31 L1661.29 1541.61 Q1663.37 1542.74 1665.59 1543.3 Q1667.81 1543.86 1670.29 1543.86 Q1674.3 1543.86 1676.63 1541.75 Q1678.97 1539.64 1678.97 1536.03 Q1678.97 1532.42 1676.63 1530.31 Q1674.3 1528.21 1670.29 1528.21 Q1668.42 1528.21 1666.54 1528.62 Q1664.69 1529.04 1662.74 1529.92 L1662.74 1512.56 Z" fill="#000000" fill-rule="evenodd" fill-opacity="1" /><path clip-path="url(#clip670)" d="M1857.28 1512.56 L1875.64 1512.56 L1875.64 1516.5 L1861.56 1516.5 L1861.56 1524.97 Q1862.58 1524.62 1863.6 1524.46 Q1864.62 1524.27 1865.64 1524.27 Q1871.43 1524.27 1874.81 1527.44 Q1878.18 1530.62 1878.18 1536.03 Q1878.18 1541.61 1874.71 1544.71 Q1871.24 1547.79 1864.92 1547.79 Q1862.74 1547.79 1860.48 1547.42 Q1858.23 1547.05 1855.82 1546.31 L1855.82 1541.61 Q1857.91 1542.74 1860.13 1543.3 Q1862.35 1543.86 1864.83 1543.86 Q1868.83 1543.86 1871.17 1541.75 Q1873.51 1539.64 1873.51 1536.03 Q1873.51 1532.42 1871.17 1530.31 Q1868.83 1528.21 1864.83 1528.21 Q1862.95 1528.21 1861.08 1528.62 Q1859.23 1529.04 1857.28 1529.92 L1857.28 1512.56 Z" fill="#000000" fill-rule="evenodd" fill-opacity="1" /><path clip-path="url(#clip670)" d="M1897.4 1515.64 Q1893.79 1515.64 1891.96 1519.2 Q1890.15 1522.75 1890.15 1529.87 Q1890.15 1536.98 1891.96 1540.55 Q1893.79 1544.09 1897.4 1544.09 Q1901.03 1544.09 1902.84 1540.55 Q1904.67 1536.98 1904.67 1529.87 Q1904.67 1522.75 1902.84 1519.2 Q1901.03 1515.64 1897.4 1515.64 M1897.4 1511.93 Q1903.21 1511.93 1906.26 1516.54 Q1909.34 1521.12 1909.34 1529.87 Q1909.34 1538.6 1906.26 1543.21 Q1903.21 1547.79 1897.4 1547.79 Q1891.59 1547.79 1888.51 1543.21 Q1885.45 1538.6 1885.45 1529.87 Q1885.45 1521.12 1888.51 1516.54 Q1891.59 1511.93 1897.4 1511.93 Z" fill="#000000" fill-rule="evenodd" fill-opacity="1" /><path clip-path="url(#clip670)" d="M2081.73 1512.56 L2103.95 1512.56 L2103.95 1514.55 L2091.4 1547.12 L2086.52 1547.12 L2098.32 1516.5 L2081.73 1516.5 L2081.73 1512.56 Z" fill="#000000" fill-rule="evenodd" fill-opacity="1" /><path clip-path="url(#clip670)" d="M2113.12 1512.56 L2131.47 1512.56 L2131.47 1516.5 L2117.4 1516.5 L2117.4 1524.97 Q2118.42 1524.62 2119.43 1524.46 Q2120.45 1524.27 2121.47 1524.27 Q2127.26 1524.27 2130.64 1527.44 Q2134.02 1530.62 2134.02 1536.03 Q2134.02 1541.61 2130.55 1544.71 Q2127.07 1547.79 2120.75 1547.79 Q2118.58 1547.79 2116.31 1547.42 Q2114.06 1547.05 2111.66 1546.31 L2111.66 1541.61 Q2113.74 1542.74 2115.96 1543.3 Q2118.18 1543.86 2120.66 1543.86 Q2124.67 1543.86 2127 1541.75 Q2129.34 1539.64 2129.34 1536.03 Q2129.34 1532.42 2127 1530.31 Q2124.67 1528.21 2120.66 1528.21 Q2118.79 1528.21 2116.91 1528.62 Q2115.06 1529.04 2113.12 1529.92 L2113.12 1512.56 Z" fill="#000000" fill-rule="evenodd" fill-opacity="1" /><path clip-path="url(#clip670)" d="M2292.77 1543.18 L2300.41 1543.18 L2300.41 1516.82 L2292.1 1518.49 L2292.1 1514.23 L2300.36 1512.56 L2305.04 1512.56 L2305.04 1543.18 L2312.68 1543.18 L2312.68 1547.12 L2292.77 1547.12 L2292.77 1543.18 Z" fill="#000000" fill-rule="evenodd" fill-opacity="1" /><path clip-path="url(#clip670)" d="M2332.12 1515.64 Q2328.51 1515.64 2326.68 1519.2 Q2324.87 1522.75 2324.87 1529.87 Q2324.87 1536.98 2326.68 1540.55 Q2328.51 1544.09 2332.12 1544.09 Q2335.75 1544.09 2337.56 1540.55 Q2339.39 1536.98 2339.39 1529.87 Q2339.39 1522.75 2337.56 1519.2 Q2335.75 1515.64 2332.12 1515.64 M2332.12 1511.93 Q2337.93 1511.93 2340.99 1516.54 Q2344.06 1521.12 2344.06 1529.87 Q2344.06 1538.6 2340.99 1543.21 Q2337.93 1547.79 2332.12 1547.79 Q2326.31 1547.79 2323.23 1543.21 Q2320.18 1538.6 2320.18 1529.87 Q2320.18 1521.12 2323.23 1516.54 Q2326.31 1511.93 2332.12 1511.93 Z" fill="#000000" fill-rule="evenodd" fill-opacity="1" /><path clip-path="url(#clip670)" d="M2362.28 1515.64 Q2358.67 1515.64 2356.84 1519.2 Q2355.04 1522.75 2355.04 1529.87 Q2355.04 1536.98 2356.84 1540.55 Q2358.67 1544.09 2362.28 1544.09 Q2365.92 1544.09 2367.72 1540.55 Q2369.55 1536.98 2369.55 1529.87 Q2369.55 1522.75 2367.72 1519.2 Q2365.92 1515.64 2362.28 1515.64 M2362.28 1511.93 Q2368.09 1511.93 2371.15 1516.54 Q2374.23 1521.12 2374.23 1529.87 Q2374.23 1538.6 2371.15 1543.21 Q2368.09 1547.79 2362.28 1547.79 Q2356.47 1547.79 2353.39 1543.21 Q2350.34 1538.6 2350.34 1529.87 Q2350.34 1521.12 2353.39 1516.54 Q2356.47 1511.93 2362.28 1511.93 Z" fill="#000000" fill-rule="evenodd" fill-opacity="1" /><polyline clip-path="url(#clip674)" style="stroke:#000000; stroke-linecap:butt; stroke-linejoin:round; stroke-width:2; stroke-opacity:0.1; fill:none" points="
  1405.19,1448.3 2352.76,1448.3 
  "/>
<polyline clip-path="url(#clip674)" style="stroke:#000000; stroke-linecap:butt; stroke-linejoin:round; stroke-width:2; stroke-opacity:0.1; fill:none" points="
  1405.19,1063.33 2352.76,1063.33 
  "/>
<polyline clip-path="url(#clip674)" style="stroke:#000000; stroke-linecap:butt; stroke-linejoin:round; stroke-width:2; stroke-opacity:0.1; fill:none" points="
  1405.19,678.36 2352.76,678.36 
  "/>
<polyline clip-path="url(#clip674)" style="stroke:#000000; stroke-linecap:butt; stroke-linejoin:round; stroke-width:2; stroke-opacity:0.1; fill:none" points="
  1405.19,293.389 2352.76,293.389 
  "/>
<polyline clip-path="url(#clip670)" style="stroke:#000000; stroke-linecap:butt; stroke-linejoin:round; stroke-width:4; stroke-opacity:1; fill:none" points="
  1405.19,1486.45 1405.19,123.472 
  "/>
<polyline clip-path="url(#clip670)" style="stroke:#000000; stroke-linecap:butt; stroke-linejoin:round; stroke-width:4; stroke-opacity:1; fill:none" points="
  1405.19,1448.3 1416.56,1448.3 
  "/>
<polyline clip-path="url(#clip670)" style="stroke:#000000; stroke-linecap:butt; stroke-linejoin:round; stroke-width:4; stroke-opacity:1; fill:none" points="
  1405.19,1063.33 1416.56,1063.33 
  "/>
<polyline clip-path="url(#clip670)" style="stroke:#000000; stroke-linecap:butt; stroke-linejoin:round; stroke-width:4; stroke-opacity:1; fill:none" points="
  1405.19,678.36 1416.56,678.36 
  "/>
<polyline clip-path="url(#clip670)" style="stroke:#000000; stroke-linecap:butt; stroke-linejoin:round; stroke-width:4; stroke-opacity:1; fill:none" points="
  1405.19,293.389 1416.56,293.389 
  "/>
<path clip-path="url(#clip670)" d="M1281.85 1434.1 Q1278.24 1434.1 1276.41 1437.67 Q1274.6 1441.21 1274.6 1448.34 Q1274.6 1455.44 1276.41 1459.01 Q1278.24 1462.55 1281.85 1462.55 Q1285.48 1462.55 1287.29 1459.01 Q1289.12 1455.44 1289.12 1448.34 Q1289.12 1441.21 1287.29 1437.67 Q1285.48 1434.1 1281.85 1434.1 M1281.85 1430.4 Q1287.66 1430.4 1290.71 1435 Q1293.79 1439.59 1293.79 1448.34 Q1293.79 1457.06 1290.71 1461.67 Q1287.66 1466.25 1281.85 1466.25 Q1276.04 1466.25 1272.96 1461.67 Q1269.9 1457.06 1269.9 1448.34 Q1269.9 1439.59 1272.96 1435 Q1276.04 1430.4 1281.85 1430.4 Z" fill="#000000" fill-rule="evenodd" fill-opacity="1" /><path clip-path="url(#clip670)" d="M1302.01 1459.7 L1306.89 1459.7 L1306.89 1465.58 L1302.01 1465.58 L1302.01 1459.7 Z" fill="#000000" fill-rule="evenodd" fill-opacity="1" /><path clip-path="url(#clip670)" d="M1327.08 1434.1 Q1323.47 1434.1 1321.64 1437.67 Q1319.83 1441.21 1319.83 1448.34 Q1319.83 1455.44 1321.64 1459.01 Q1323.47 1462.55 1327.08 1462.55 Q1330.71 1462.55 1332.52 1459.01 Q1334.35 1455.44 1334.35 1448.34 Q1334.35 1441.21 1332.52 1437.67 Q1330.71 1434.1 1327.08 1434.1 M1327.08 1430.4 Q1332.89 1430.4 1335.95 1435 Q1339.02 1439.59 1339.02 1448.34 Q1339.02 1457.06 1335.95 1461.67 Q1332.89 1466.25 1327.08 1466.25 Q1321.27 1466.25 1318.19 1461.67 Q1315.14 1457.06 1315.14 1448.34 Q1315.14 1439.59 1318.19 1435 Q1321.27 1430.4 1327.08 1430.4 Z" fill="#000000" fill-rule="evenodd" fill-opacity="1" /><path clip-path="url(#clip670)" d="M1357.24 1434.1 Q1353.63 1434.1 1351.8 1437.67 Q1350 1441.21 1350 1448.34 Q1350 1455.44 1351.8 1459.01 Q1353.63 1462.55 1357.24 1462.55 Q1360.88 1462.55 1362.68 1459.01 Q1364.51 1455.44 1364.51 1448.34 Q1364.51 1441.21 1362.68 1437.67 Q1360.88 1434.1 1357.24 1434.1 M1357.24 1430.4 Q1363.05 1430.4 1366.11 1435 Q1369.19 1439.59 1369.19 1448.34 Q1369.19 1457.06 1366.11 1461.67 Q1363.05 1466.25 1357.24 1466.25 Q1351.43 1466.25 1348.35 1461.67 Q1345.3 1457.06 1345.3 1448.34 Q1345.3 1439.59 1348.35 1435 Q1351.43 1430.4 1357.24 1430.4 Z" fill="#000000" fill-rule="evenodd" fill-opacity="1" /><path clip-path="url(#clip670)" d="M1283.08 1049.13 Q1279.46 1049.13 1277.64 1052.69 Q1275.83 1056.24 1275.83 1063.37 Q1275.83 1070.47 1277.64 1074.04 Q1279.46 1077.58 1283.08 1077.58 Q1286.71 1077.58 1288.52 1074.04 Q1290.34 1070.47 1290.34 1063.37 Q1290.34 1056.24 1288.52 1052.69 Q1286.71 1049.13 1283.08 1049.13 M1283.08 1045.43 Q1288.89 1045.43 1291.94 1050.03 Q1295.02 1054.62 1295.02 1063.37 Q1295.02 1072.09 1291.94 1076.7 Q1288.89 1081.28 1283.08 1081.28 Q1277.27 1081.28 1274.19 1076.7 Q1271.13 1072.09 1271.13 1063.37 Q1271.13 1054.62 1274.19 1050.03 Q1277.27 1045.43 1283.08 1045.43 Z" fill="#000000" fill-rule="evenodd" fill-opacity="1" /><path clip-path="url(#clip670)" d="M1303.24 1074.73 L1308.12 1074.73 L1308.12 1080.61 L1303.24 1080.61 L1303.24 1074.73 Z" fill="#000000" fill-rule="evenodd" fill-opacity="1" /><path clip-path="url(#clip670)" d="M1328.31 1049.13 Q1324.7 1049.13 1322.87 1052.69 Q1321.06 1056.24 1321.06 1063.37 Q1321.06 1070.47 1322.87 1074.04 Q1324.7 1077.58 1328.31 1077.58 Q1331.94 1077.58 1333.75 1074.04 Q1335.58 1070.47 1335.58 1063.37 Q1335.58 1056.24 1333.75 1052.69 Q1331.94 1049.13 1328.31 1049.13 M1328.31 1045.43 Q1334.12 1045.43 1337.17 1050.03 Q1340.25 1054.62 1340.25 1063.37 Q1340.25 1072.09 1337.17 1076.7 Q1334.12 1081.28 1328.31 1081.28 Q1322.5 1081.28 1319.42 1076.7 Q1316.36 1072.09 1316.36 1063.37 Q1316.36 1054.62 1319.42 1050.03 Q1322.5 1045.43 1328.31 1045.43 Z" fill="#000000" fill-rule="evenodd" fill-opacity="1" /><path clip-path="url(#clip670)" d="M1349.28 1076.68 L1356.92 1076.68 L1356.92 1050.31 L1348.61 1051.98 L1348.61 1047.72 L1356.87 1046.05 L1361.55 1046.05 L1361.55 1076.68 L1369.19 1076.68 L1369.19 1080.61 L1349.28 1080.61 L1349.28 1076.68 Z" fill="#000000" fill-rule="evenodd" fill-opacity="1" /><path clip-path="url(#clip670)" d="M1283.45 664.159 Q1279.83 664.159 1278.01 667.723 Q1276.2 671.265 1276.2 678.395 Q1276.2 685.501 1278.01 689.066 Q1279.83 692.608 1283.45 692.608 Q1287.08 692.608 1288.89 689.066 Q1290.71 685.501 1290.71 678.395 Q1290.71 671.265 1288.89 667.723 Q1287.08 664.159 1283.45 664.159 M1283.45 660.455 Q1289.26 660.455 1292.31 665.061 Q1295.39 669.645 1295.39 678.395 Q1295.39 687.122 1292.31 691.728 Q1289.26 696.311 1283.45 696.311 Q1277.64 696.311 1274.56 691.728 Q1271.5 687.122 1271.5 678.395 Q1271.5 669.645 1274.56 665.061 Q1277.64 660.455 1283.45 660.455 Z" fill="#000000" fill-rule="evenodd" fill-opacity="1" /><path clip-path="url(#clip670)" d="M1303.61 689.76 L1308.49 689.76 L1308.49 695.64 L1303.61 695.64 L1303.61 689.76 Z" fill="#000000" fill-rule="evenodd" fill-opacity="1" /><path clip-path="url(#clip670)" d="M1328.68 664.159 Q1325.07 664.159 1323.24 667.723 Q1321.43 671.265 1321.43 678.395 Q1321.43 685.501 1323.24 689.066 Q1325.07 692.608 1328.68 692.608 Q1332.31 692.608 1334.12 689.066 Q1335.95 685.501 1335.95 678.395 Q1335.95 671.265 1334.12 667.723 Q1332.31 664.159 1328.68 664.159 M1328.68 660.455 Q1334.49 660.455 1337.54 665.061 Q1340.62 669.645 1340.62 678.395 Q1340.62 687.122 1337.54 691.728 Q1334.49 696.311 1328.68 696.311 Q1322.87 696.311 1319.79 691.728 Q1316.73 687.122 1316.73 678.395 Q1316.73 669.645 1319.79 665.061 Q1322.87 660.455 1328.68 660.455 Z" fill="#000000" fill-rule="evenodd" fill-opacity="1" /><path clip-path="url(#clip670)" d="M1352.87 691.705 L1369.19 691.705 L1369.19 695.64 L1347.24 695.64 L1347.24 691.705 Q1349.9 688.95 1354.49 684.321 Q1359.09 679.668 1360.27 678.325 Q1362.52 675.802 1363.4 674.066 Q1364.3 672.307 1364.3 670.617 Q1364.3 667.862 1362.36 666.126 Q1360.44 664.39 1357.33 664.39 Q1355.14 664.39 1352.68 665.154 Q1350.25 665.918 1347.47 667.469 L1347.47 662.747 Q1350.3 661.612 1352.75 661.034 Q1355.2 660.455 1357.24 660.455 Q1362.61 660.455 1365.81 663.14 Q1369 665.825 1369 670.316 Q1369 672.446 1368.19 674.367 Q1367.4 676.265 1365.3 678.858 Q1364.72 679.529 1361.62 682.747 Q1358.51 685.941 1352.87 691.705 Z" fill="#000000" fill-rule="evenodd" fill-opacity="1" /><path clip-path="url(#clip670)" d="M1282.5 279.188 Q1278.89 279.188 1277.06 282.753 Q1275.25 286.294 1275.25 293.424 Q1275.25 300.53 1277.06 304.095 Q1278.89 307.637 1282.5 307.637 Q1286.13 307.637 1287.94 304.095 Q1289.77 300.53 1289.77 293.424 Q1289.77 286.294 1287.94 282.753 Q1286.13 279.188 1282.5 279.188 M1282.5 275.484 Q1288.31 275.484 1291.36 280.091 Q1294.44 284.674 1294.44 293.424 Q1294.44 302.151 1291.36 306.757 Q1288.31 311.34 1282.5 311.34 Q1276.69 311.34 1273.61 306.757 Q1270.55 302.151 1270.55 293.424 Q1270.55 284.674 1273.61 280.091 Q1276.69 275.484 1282.5 275.484 Z" fill="#000000" fill-rule="evenodd" fill-opacity="1" /><path clip-path="url(#clip670)" d="M1302.66 304.79 L1307.54 304.79 L1307.54 310.669 L1302.66 310.669 L1302.66 304.79 Z" fill="#000000" fill-rule="evenodd" fill-opacity="1" /><path clip-path="url(#clip670)" d="M1327.73 279.188 Q1324.12 279.188 1322.29 282.753 Q1320.48 286.294 1320.48 293.424 Q1320.48 300.53 1322.29 304.095 Q1324.12 307.637 1327.73 307.637 Q1331.36 307.637 1333.17 304.095 Q1335 300.53 1335 293.424 Q1335 286.294 1333.17 282.753 Q1331.36 279.188 1327.73 279.188 M1327.73 275.484 Q1333.54 275.484 1336.59 280.091 Q1339.67 284.674 1339.67 293.424 Q1339.67 302.151 1336.59 306.757 Q1333.54 311.34 1327.73 311.34 Q1321.92 311.34 1318.84 306.757 Q1315.78 302.151 1315.78 293.424 Q1315.78 284.674 1318.84 280.091 Q1321.92 275.484 1327.73 275.484 Z" fill="#000000" fill-rule="evenodd" fill-opacity="1" /><path clip-path="url(#clip670)" d="M1362.06 292.035 Q1365.41 292.753 1367.29 295.021 Q1369.19 297.29 1369.19 300.623 Q1369.19 305.739 1365.67 308.54 Q1362.15 311.34 1355.67 311.34 Q1353.49 311.34 1351.18 310.901 Q1348.89 310.484 1346.43 309.628 L1346.43 305.114 Q1348.38 306.248 1350.69 306.827 Q1353.01 307.405 1355.53 307.405 Q1359.93 307.405 1362.22 305.669 Q1364.53 303.933 1364.53 300.623 Q1364.53 297.567 1362.38 295.854 Q1360.25 294.118 1356.43 294.118 L1352.4 294.118 L1352.4 290.276 L1356.62 290.276 Q1360.07 290.276 1361.89 288.91 Q1363.72 287.521 1363.72 284.929 Q1363.72 282.267 1361.82 280.855 Q1359.95 279.419 1356.43 279.419 Q1354.51 279.419 1352.31 279.836 Q1350.11 280.253 1347.47 281.132 L1347.47 276.966 Q1350.14 276.225 1352.45 275.855 Q1354.79 275.484 1356.85 275.484 Q1362.17 275.484 1365.27 277.915 Q1368.38 280.322 1368.38 284.442 Q1368.38 287.313 1366.73 289.304 Q1365.09 291.271 1362.06 292.035 Z" fill="#000000" fill-rule="evenodd" fill-opacity="1" /><path clip-path="url(#clip670)" d="M1652.75 18.8205 L1652.75 65.8515 L1662.63 65.8515 Q1675.15 65.8515 1680.94 60.1802 Q1686.78 54.509 1686.78 42.2752 Q1686.78 30.1225 1680.94 24.4918 Q1675.15 18.8205 1662.63 18.8205 L1652.75 18.8205 M1644.57 12.096 L1661.38 12.096 Q1678.96 12.096 1687.18 19.4281 Q1695.4 26.7198 1695.4 42.2752 Q1695.4 57.9117 1687.14 65.2439 Q1678.88 72.576 1661.38 72.576 L1644.57 72.576 L1644.57 12.096 Z" fill="#000000" fill-rule="evenodd" fill-opacity="1" /><path clip-path="url(#clip670)" d="M1708.12 27.2059 L1715.58 27.2059 L1715.58 72.576 L1708.12 72.576 L1708.12 27.2059 M1708.12 9.54393 L1715.58 9.54393 L1715.58 18.9825 L1708.12 18.9825 L1708.12 9.54393 Z" fill="#000000" fill-rule="evenodd" fill-opacity="1" /><path clip-path="url(#clip670)" d="M1760.1 28.5427 L1760.1 35.5912 Q1756.94 33.9709 1753.53 33.1607 Q1750.13 32.3505 1746.49 32.3505 Q1740.94 32.3505 1738.14 34.0519 Q1735.39 35.7533 1735.39 39.156 Q1735.39 41.7486 1737.37 43.2475 Q1739.36 44.7058 1745.35 46.0426 L1747.9 46.6097 Q1755.84 48.3111 1759.17 51.4303 Q1762.53 54.509 1762.53 60.0587 Q1762.53 66.3781 1757.5 70.0644 Q1752.52 73.7508 1743.77 73.7508 Q1740.13 73.7508 1736.16 73.0216 Q1732.23 72.3329 1727.85 70.9151 L1727.85 63.2184 Q1731.98 65.3654 1735.99 66.4591 Q1740 67.5124 1743.93 67.5124 Q1749.2 67.5124 1752.04 65.73 Q1754.87 63.9071 1754.87 60.6258 Q1754.87 57.5877 1752.81 55.9673 Q1750.78 54.3469 1743.85 52.8481 L1741.26 52.2405 Q1734.33 50.7821 1731.25 47.7845 Q1728.18 44.7463 1728.18 39.4801 Q1728.18 33.0797 1732.71 29.5959 Q1737.25 26.1121 1745.59 26.1121 Q1749.73 26.1121 1753.37 26.7198 Q1757.02 27.3274 1760.1 28.5427 Z" fill="#000000" fill-rule="evenodd" fill-opacity="1" /><path clip-path="url(#clip670)" d="M1781.77 14.324 L1781.77 27.2059 L1797.12 27.2059 L1797.12 32.9987 L1781.77 32.9987 L1781.77 57.6282 Q1781.77 63.1779 1783.27 64.7578 Q1784.81 66.3376 1789.47 66.3376 L1797.12 66.3376 L1797.12 72.576 L1789.47 72.576 Q1780.84 72.576 1777.56 69.3758 Q1774.28 66.1351 1774.28 57.6282 L1774.28 32.9987 L1768.81 32.9987 L1768.81 27.2059 L1774.28 27.2059 L1774.28 14.324 L1781.77 14.324 Z" fill="#000000" fill-rule="evenodd" fill-opacity="1" /><path clip-path="url(#clip670)" d="M1833.22 34.1734 Q1831.96 33.4443 1830.46 33.1202 Q1829 32.7556 1827.22 32.7556 Q1820.9 32.7556 1817.5 36.8875 Q1814.14 40.9789 1814.14 48.6757 L1814.14 72.576 L1806.64 72.576 L1806.64 27.2059 L1814.14 27.2059 L1814.14 34.2544 Q1816.49 30.1225 1820.25 28.1376 Q1824.02 26.1121 1829.41 26.1121 Q1830.18 26.1121 1831.11 26.2337 Q1832.04 26.3147 1833.18 26.5172 L1833.22 34.1734 Z" fill="#000000" fill-rule="evenodd" fill-opacity="1" /><path clip-path="url(#clip670)" d="M1841.03 27.2059 L1848.49 27.2059 L1848.49 72.576 L1841.03 72.576 L1841.03 27.2059 M1841.03 9.54393 L1848.49 9.54393 L1848.49 18.9825 L1841.03 18.9825 L1841.03 9.54393 Z" fill="#000000" fill-rule="evenodd" fill-opacity="1" /><path clip-path="url(#clip670)" d="M1896.65 49.9314 Q1896.65 41.7081 1893.25 37.0496 Q1889.89 32.3505 1883.97 32.3505 Q1878.06 32.3505 1874.66 37.0496 Q1871.29 41.7081 1871.29 49.9314 Q1871.29 58.1548 1874.66 62.8538 Q1878.06 67.5124 1883.97 67.5124 Q1889.89 67.5124 1893.25 62.8538 Q1896.65 58.1548 1896.65 49.9314 M1871.29 34.0924 Q1873.64 30.0415 1877.21 28.0971 Q1880.81 26.1121 1885.8 26.1121 Q1894.06 26.1121 1899.21 32.6746 Q1904.39 39.2371 1904.39 49.9314 Q1904.39 60.6258 1899.21 67.1883 Q1894.06 73.7508 1885.8 73.7508 Q1880.81 73.7508 1877.21 71.8063 Q1873.64 69.8214 1871.29 65.7705 L1871.29 72.576 L1863.8 72.576 L1863.8 9.54393 L1871.29 9.54393 L1871.29 34.0924 Z" fill="#000000" fill-rule="evenodd" fill-opacity="1" /><path clip-path="url(#clip670)" d="M1915.98 54.671 L1915.98 27.2059 L1923.43 27.2059 L1923.43 54.3874 Q1923.43 60.8284 1925.94 64.0691 Q1928.45 67.2693 1933.48 67.2693 Q1939.51 67.2693 1943 63.421 Q1946.52 59.5726 1946.52 52.9291 L1946.52 27.2059 L1953.97 27.2059 L1953.97 72.576 L1946.52 72.576 L1946.52 65.6084 Q1943.81 69.7404 1940.2 71.7658 Q1936.64 73.7508 1931.9 73.7508 Q1924.08 73.7508 1920.03 68.8897 Q1915.98 64.0286 1915.98 54.671 M1934.73 26.1121 L1934.73 26.1121 Z" fill="#000000" fill-rule="evenodd" fill-opacity="1" /><path clip-path="url(#clip670)" d="M1976.7 14.324 L1976.7 27.2059 L1992.05 27.2059 L1992.05 32.9987 L1976.7 32.9987 L1976.7 57.6282 Q1976.7 63.1779 1978.2 64.7578 Q1979.74 66.3376 1984.4 66.3376 L1992.05 66.3376 L1992.05 72.576 L1984.4 72.576 Q1975.77 72.576 1972.49 69.3758 Q1969.2 66.1351 1969.2 57.6282 L1969.2 32.9987 L1963.74 32.9987 L1963.74 27.2059 L1969.2 27.2059 L1969.2 14.324 L1976.7 14.324 Z" fill="#000000" fill-rule="evenodd" fill-opacity="1" /><path clip-path="url(#clip670)" d="M2001.86 27.2059 L2009.31 27.2059 L2009.31 72.576 L2001.86 72.576 L2001.86 27.2059 M2001.86 9.54393 L2009.31 9.54393 L2009.31 18.9825 L2001.86 18.9825 L2001.86 9.54393 Z" fill="#000000" fill-rule="evenodd" fill-opacity="1" /><path clip-path="url(#clip670)" d="M2042.49 32.4315 Q2036.49 32.4315 2033.01 37.1306 Q2029.52 41.7891 2029.52 49.9314 Q2029.52 58.0738 2032.97 62.7728 Q2036.45 67.4314 2042.49 67.4314 Q2048.44 67.4314 2051.92 62.7323 Q2055.41 58.0333 2055.41 49.9314 Q2055.41 41.8701 2051.92 37.1711 Q2048.44 32.4315 2042.49 32.4315 M2042.49 26.1121 Q2052.21 26.1121 2057.76 32.4315 Q2063.31 38.7509 2063.31 49.9314 Q2063.31 61.0714 2057.76 67.4314 Q2052.21 73.7508 2042.49 73.7508 Q2032.72 73.7508 2027.17 67.4314 Q2021.66 61.0714 2021.66 49.9314 Q2021.66 38.7509 2027.17 32.4315 Q2032.72 26.1121 2042.49 26.1121 Z" fill="#000000" fill-rule="evenodd" fill-opacity="1" /><path clip-path="url(#clip670)" d="M2113.38 45.1919 L2113.38 72.576 L2105.92 72.576 L2105.92 45.4349 Q2105.92 38.994 2103.41 35.7938 Q2100.9 32.5936 2095.88 32.5936 Q2089.84 32.5936 2086.36 36.4419 Q2082.87 40.2903 2082.87 46.9338 L2082.87 72.576 L2075.38 72.576 L2075.38 27.2059 L2082.87 27.2059 L2082.87 34.2544 Q2085.55 30.163 2089.15 28.1376 Q2092.8 26.1121 2097.54 26.1121 Q2105.36 26.1121 2109.37 30.9732 Q2113.38 35.7938 2113.38 45.1919 Z" fill="#000000" fill-rule="evenodd" fill-opacity="1" /><polyline clip-path="url(#clip674)" style="stroke:#009af9; stroke-linecap:butt; stroke-linejoin:round; stroke-width:4; stroke-opacity:1; fill:none" points="
  1432,1434.79 1441.03,1408.84 1450.06,1361.79 1459.09,1287.39 1468.12,1183.03 1477.15,1051.51 1486.18,901.16 1495.21,743.952 1504.24,592.554 1513.27,457.672 
  1522.3,346.474 1531.33,262.278 1540.36,205.147 1549.39,172.886 1558.42,162.047 1567.45,168.732 1576.48,189.128 1585.51,219.81 1594.54,257.869 1603.57,300.938 
  1612.6,347.147 1621.63,395.055 1630.66,443.578 1639.69,491.916 1648.72,539.493 1657.74,585.902 1666.77,630.867 1675.8,674.21 1684.83,715.822 1693.86,755.651 
  1702.89,793.681 1711.92,829.923 1720.95,864.408 1729.98,897.182 1739.01,928.296 1748.04,957.812 1757.07,985.79 1766.1,1012.3 1775.13,1037.39 1784.16,1061.14 
  1793.19,1083.62 1802.22,1104.86 1811.25,1124.95 1820.28,1143.94 1829.31,1161.87 1838.34,1178.81 1847.37,1194.81 1856.4,1209.91 1865.43,1224.15 1874.46,1237.6 
  1883.49,1250.28 1892.52,1262.23 1901.55,1273.51 1910.57,1284.13 1919.6,1294.14 1928.63,1303.57 1937.66,1312.46 1946.69,1320.82 1955.72,1328.7 1964.75,1336.11 
  1973.78,1343.08 1982.81,1349.64 1991.84,1355.81 2000.87,1361.62 2009.9,1367.07 2018.93,1372.2 2027.96,1377.02 2036.99,1381.55 2046.02,1385.8 2055.05,1389.79 
  2064.08,1393.54 2073.11,1397.06 2082.14,1400.36 2091.17,1403.46 2100.2,1406.37 2109.23,1409.09 2118.26,1411.65 2127.29,1414.04 2136.32,1416.29 2145.35,1418.39 
  2154.37,1420.37 2163.4,1422.21 2172.43,1423.94 2181.46,1425.56 2190.49,1427.08 2199.52,1428.5 2208.55,1429.82 2217.58,1431.06 2226.61,1432.23 2235.64,1433.31 
  2244.67,1434.33 2253.7,1435.28 2262.73,1436.16 2271.76,1436.99 2280.79,1437.76 2289.82,1438.49 2298.85,1439.16 2307.88,1439.79 2316.91,1440.38 2325.94,1440.93 
  
  "/>
<polyline clip-path="url(#clip674)" style="stroke:#e26f46; stroke-linecap:butt; stroke-linejoin:round; stroke-width:4; stroke-opacity:1; fill:none" points="
  1432,1443.36 1441.03,1440.9 1450.06,1436.18 1459.09,1429.85 1468.12,1422.08 1477.15,1413.3 1486.18,1404.1 1495.21,1395.17 1504.24,1387.12 1513.27,1380.38 
  1522.3,1375.19 1531.33,1371.59 1540.36,1369.48 1549.39,1368.69 1558.42,1368.99 1567.45,1370.15 1576.48,1371.97 1585.51,1374.27 1594.54,1376.89 1603.57,1379.72 
  1612.6,1382.67 1621.63,1385.67 1630.66,1388.67 1639.69,1391.62 1648.72,1394.5 1657.74,1397.3 1666.77,1400 1675.8,1402.59 1684.83,1405.07 1693.86,1407.44 
  1702.89,1409.7 1711.92,1411.85 1720.95,1413.9 1729.98,1415.84 1739.01,1417.68 1748.04,1419.43 1757.07,1421.08 1766.1,1422.65 1775.13,1424.13 1784.16,1425.53 
  1793.19,1426.86 1802.22,1428.11 1811.25,1429.3 1820.28,1430.42 1829.31,1431.48 1838.34,1432.47 1847.37,1433.42 1856.4,1434.31 1865.43,1435.14 1874.46,1435.94 
  1883.49,1436.68 1892.52,1437.39 1901.55,1438.05 1910.57,1438.68 1919.6,1439.26 1928.63,1439.82 1937.66,1440.34 1946.69,1440.83 1955.72,1441.3 1964.75,1441.73 
  1973.78,1442.14 1982.81,1442.53 1991.84,1442.89 2000.87,1443.23 2009.9,1443.55 2018.93,1443.85 2027.96,1444.13 2036.99,1444.4 2046.02,1444.65 2055.05,1444.88 
  2064.08,1445.1 2073.11,1445.31 2082.14,1445.5 2091.17,1445.68 2100.2,1445.85 2109.23,1446.01 2118.26,1446.16 2127.29,1446.3 2136.32,1446.43 2145.35,1446.56 
  2154.37,1446.67 2163.4,1446.78 2172.43,1446.88 2181.46,1446.98 2190.49,1447.06 2199.52,1447.15 2208.55,1447.22 2217.58,1447.3 2226.61,1447.37 2235.64,1447.43 
  2244.67,1447.49 2253.7,1447.54 2262.73,1447.6 2271.76,1447.64 2280.79,1447.69 2289.82,1447.73 2298.85,1447.77 2307.88,1447.81 2316.91,1447.84 2325.94,1447.87 
  
  "/>
</svg>
